<?xml version="1.0" encoding="UTF-8" standalone="no"?><svg xmlns="http://www.w3.org/2000/svg" xmlns:xlink="http://www.w3.org/1999/xlink" contentStyleType="text/css" height="630px" preserveAspectRatio="none" style="width:2751px;height:630px;background:#FFFFFF;" version="1.1" viewBox="0 0 2751 630" width="2751px" zoomAndPan="magnify"><defs/><g><!--MD5=[919386ce46a6a5a7c71af782f732246a]
class Mundo--><g id="elem_Mundo"><rect codeLine="1" fill="#F1F1F1" height="100.8281" id="Mundo" rx="2.5" ry="2.5" style="stroke:#181818;stroke-width:0.5;" width="284" x="833" y="300"/><ellipse cx="949.25" cy="316" fill="#ADD1B2" rx="11" ry="11" style="stroke:#181818;stroke-width:1.0;"/><path d="M952.0156,311.875 Q952.1719,311.6563 952.3594,311.5469 Q952.5469,311.4375 952.7656,311.4375 Q953.1406,311.4375 953.375,311.7031 Q953.6094,311.9531 953.6094,312.5625 L953.6094,314.0156 Q953.6094,314.625 953.375,314.8906 Q953.1406,315.1563 952.7656,315.1563 Q952.4219,315.1563 952.2188,314.9531 Q952.0156,314.7656 951.9063,314.25 Q951.8594,313.8906 951.6719,313.7031 Q951.3438,313.3281 950.7344,313.1094 Q950.125,312.8906 949.5,312.8906 Q948.7344,312.8906 948.0938,313.2188 Q947.4688,313.5469 946.9688,314.2969 Q946.4844,315.0469 946.4844,316.0781 L946.4844,317.1719 Q946.4844,318.4063 947.375,319.2344 Q948.2656,320.0469 949.8594,320.0469 Q950.7969,320.0469 951.4531,319.7969 Q951.8438,319.6406 952.2656,319.2031 Q952.5313,318.9375 952.6719,318.8594 Q952.8281,318.7813 953.0313,318.7813 Q953.3594,318.7813 953.6094,319.0469 Q953.875,319.2969 953.875,319.6406 Q953.875,319.9844 953.5313,320.3906 Q953.0313,320.9688 952.2344,321.2969 Q951.1563,321.75 949.8594,321.75 Q948.3438,321.75 947.1406,321.125 Q946.1563,320.625 945.4688,319.5625 Q944.7813,318.4844 944.7813,317.2031 L944.7813,316.0469 Q944.7813,314.7188 945.3906,313.5781 Q946.0156,312.4219 947.1094,311.8125 Q948.2031,311.1875 949.4375,311.1875 Q950.1719,311.1875 950.8125,311.3594 Q951.4688,311.5156 952.0156,311.875 Z " fill="#000000"/><text fill="#000000" font-family="sans-serif" font-size="14" lengthAdjust="spacing" textLength="43" x="969.75" y="321.7285">Mundo</text><line style="stroke:#181818;stroke-width:0.5;" x1="834" x2="1116" y1="332" y2="332"/><text fill="#000000" font-family="sans-serif" font-size="14" lengthAdjust="spacing" textLength="77" x="839" y="350.5332">mouseX : int</text><text fill="#000000" font-family="sans-serif" font-size="14" lengthAdjust="spacing" textLength="78" x="839" y="368.1426">mouseY : int</text><line style="stroke:#181818;stroke-width:0.5;" x1="834" x2="1116" y1="375.2188" y2="375.2188"/><ellipse cx="844" cy="389.5234" fill="#84BE84" rx="3" ry="3" style="stroke:#038048;stroke-width:1.0;"/><text fill="#000000" font-family="sans-serif" font-size="14" lengthAdjust="spacing" text-decoration="underline" textLength="258" x="853" y="393.752">GetInstance(width:int, height:int) : Mundo</text></g><!--MD5=[175f95e045c1a44aed0b30df3abe0e5c]
class Program--><g id="elem_Program"><rect codeLine="6" fill="#F1F1F1" height="65.6094" id="Program" rx="2.5" ry="2.5" style="stroke:#181818;stroke-width:0.5;" width="165" x="60.5" y="51"/><ellipse cx="111.75" cy="67" fill="#ADD1B2" rx="11" ry="11" style="stroke:#181818;stroke-width:1.0;"/><path d="M114.5156,62.875 Q114.6719,62.6563 114.8594,62.5469 Q115.0469,62.4375 115.2656,62.4375 Q115.6406,62.4375 115.875,62.7031 Q116.1094,62.9531 116.1094,63.5625 L116.1094,65.0156 Q116.1094,65.625 115.875,65.8906 Q115.6406,66.1563 115.2656,66.1563 Q114.9219,66.1563 114.7188,65.9531 Q114.5156,65.7656 114.4063,65.25 Q114.3594,64.8906 114.1719,64.7031 Q113.8438,64.3281 113.2344,64.1094 Q112.625,63.8906 112,63.8906 Q111.2344,63.8906 110.5938,64.2188 Q109.9688,64.5469 109.4688,65.2969 Q108.9844,66.0469 108.9844,67.0781 L108.9844,68.1719 Q108.9844,69.4063 109.875,70.2344 Q110.7656,71.0469 112.3594,71.0469 Q113.2969,71.0469 113.9531,70.7969 Q114.3438,70.6406 114.7656,70.2031 Q115.0313,69.9375 115.1719,69.8594 Q115.3281,69.7813 115.5313,69.7813 Q115.8594,69.7813 116.1094,70.0469 Q116.375,70.2969 116.375,70.6406 Q116.375,70.9844 116.0313,71.3906 Q115.5313,71.9688 114.7344,72.2969 Q113.6563,72.75 112.3594,72.75 Q110.8438,72.75 109.6406,72.125 Q108.6563,71.625 107.9688,70.5625 Q107.2813,69.4844 107.2813,68.2031 L107.2813,67.0469 Q107.2813,65.7188 107.8906,64.5781 Q108.5156,63.4219 109.6094,62.8125 Q110.7031,62.1875 111.9375,62.1875 Q112.6719,62.1875 113.3125,62.3594 Q113.9688,62.5156 114.5156,62.875 Z " fill="#000000"/><text fill="#000000" font-family="sans-serif" font-size="14" lengthAdjust="spacing" textLength="54" x="132.25" y="72.7285">Program</text><line style="stroke:#181818;stroke-width:0.5;" x1="61.5" x2="224.5" y1="83" y2="83"/><line style="stroke:#181818;stroke-width:0.5;" x1="61.5" x2="224.5" y1="91" y2="91"/><text fill="#000000" font-family="sans-serif" font-size="14" lengthAdjust="spacing" text-decoration="underline" textLength="153" x="66.5" y="109.5332">Main(args:string[]) : void</text></g><!--MD5=[d0074d293e9645ff4ed5f25f47c5773b]
class GameWindow--><g id="elem_GameWindow"><rect fill="#F1F1F1" height="48" id="GameWindow" rx="2.5" ry="2.5" style="stroke:#181818;stroke-width:0.5;" width="119" x="915.5" y="60"/><ellipse cx="930.5" cy="76" fill="#ADD1B2" rx="11" ry="11" style="stroke:#181818;stroke-width:1.0;"/><path d="M933.2656,71.875 Q933.4219,71.6563 933.6094,71.5469 Q933.7969,71.4375 934.0156,71.4375 Q934.3906,71.4375 934.625,71.7031 Q934.8594,71.9531 934.8594,72.5625 L934.8594,74.0156 Q934.8594,74.625 934.625,74.8906 Q934.3906,75.1563 934.0156,75.1563 Q933.6719,75.1563 933.4688,74.9531 Q933.2656,74.7656 933.1563,74.25 Q933.1094,73.8906 932.9219,73.7031 Q932.5938,73.3281 931.9844,73.1094 Q931.375,72.8906 930.75,72.8906 Q929.9844,72.8906 929.3438,73.2188 Q928.7188,73.5469 928.2188,74.2969 Q927.7344,75.0469 927.7344,76.0781 L927.7344,77.1719 Q927.7344,78.4063 928.625,79.2344 Q929.5156,80.0469 931.1094,80.0469 Q932.0469,80.0469 932.7031,79.7969 Q933.0938,79.6406 933.5156,79.2031 Q933.7813,78.9375 933.9219,78.8594 Q934.0781,78.7813 934.2813,78.7813 Q934.6094,78.7813 934.8594,79.0469 Q935.125,79.2969 935.125,79.6406 Q935.125,79.9844 934.7813,80.3906 Q934.2813,80.9688 933.4844,81.2969 Q932.4063,81.75 931.1094,81.75 Q929.5938,81.75 928.3906,81.125 Q927.4063,80.625 926.7188,79.5625 Q926.0313,78.4844 926.0313,77.2031 L926.0313,76.0469 Q926.0313,74.7188 926.6406,73.5781 Q927.2656,72.4219 928.3594,71.8125 Q929.4531,71.1875 930.6875,71.1875 Q931.4219,71.1875 932.0625,71.3594 Q932.7188,71.5156 933.2656,71.875 Z " fill="#000000"/><text fill="#000000" font-family="sans-serif" font-size="14" lengthAdjust="spacing" textLength="87" x="944.5" y="81.7285">GameWindow</text><line style="stroke:#181818;stroke-width:0.5;" x1="916.5" x2="1033.5" y1="92" y2="92"/><line style="stroke:#181818;stroke-width:0.5;" x1="916.5" x2="1033.5" y1="100" y2="100"/></g><!--MD5=[3051a6a8f877a755a60c7cfd1e6f410a]
class Objeto--><g id="elem_Objeto"><rect codeLine="10" fill="#F1F1F1" height="153.6563" id="Objeto" rx="2.5" ry="2.5" style="stroke:#181818;stroke-width:0.5;" width="304" x="1212" y="7"/><ellipse cx="1338.75" cy="23" fill="#A9DCDF" rx="11" ry="11" style="stroke:#181818;stroke-width:1.0;"/><path d="M1340.9375,24.7656 L1336.7969,24.7656 L1336.375,25.7969 L1336.7969,25.7969 Q1337.4063,25.7969 1337.6719,26.0313 Q1337.9375,26.2656 1337.9375,26.6563 Q1337.9375,27.0313 1337.6719,27.2656 Q1337.4063,27.5 1336.7969,27.5 L1334.5,27.5 Q1333.8906,27.5 1333.6406,27.2656 Q1333.375,27.0313 1333.375,26.6406 Q1333.375,26.2656 1333.6563,26.0313 Q1333.9219,25.7813 1334.5469,25.7969 L1337.2188,19.1406 L1336.1094,19.1406 Q1335.5,19.1406 1335.2344,18.9063 Q1334.9688,18.6719 1334.9688,18.2813 Q1334.9688,17.9063 1335.2344,17.6719 Q1335.5,17.4375 1336.1094,17.4375 L1339.7813,17.4375 L1343.1719,25.7969 Q1343.7656,25.7969 1343.9531,25.9375 Q1344.3438,26.2031 1344.3438,26.6563 Q1344.3438,27.0313 1344.0781,27.2656 Q1343.8281,27.5 1343.2188,27.5 L1340.9219,27.5 Q1340.3125,27.5 1340.0469,27.2656 Q1339.7813,27.0313 1339.7813,26.6406 Q1339.7813,26.2656 1340.0469,26.0313 Q1340.3125,25.7969 1340.9219,25.7969 L1341.3438,25.7969 L1340.9375,24.7656 Z M1340.2188,23.0625 L1338.8594,19.6875 L1337.4844,23.0625 L1340.2188,23.0625 Z " fill="#000000"/><text fill="#000000" font-family="sans-serif" font-size="14" font-style="italic" lengthAdjust="spacing" textLength="42" x="1359.25" y="28.7285">Objeto</text><line style="stroke:#181818;stroke-width:0.5;" x1="1213" x2="1515" y1="39" y2="39"/><ellipse cx="1223" cy="53.3047" fill="none" rx="3" ry="3" style="stroke:#038048;stroke-width:1.0;"/><text fill="#000000" font-family="sans-serif" font-size="14" lengthAdjust="spacing" textLength="231" x="1232" y="57.5332">PrimitivaTamanho : float «get» «set»</text><line style="stroke:#181818;stroke-width:0.5;" x1="1213" x2="1515" y1="64.6094" y2="64.6094"/><ellipse cx="1223" cy="78.9141" fill="#84BE84" rx="3" ry="3" style="stroke:#038048;stroke-width:1.0;"/><text fill="#000000" font-family="sans-serif" font-size="14" lengthAdjust="spacing" textLength="222" x="1232" y="83.1426">Objeto(rotulo:string, paiRef:Objeto)</text><ellipse cx="1223" cy="96.5234" fill="#84BE84" rx="3" ry="3" style="stroke:#038048;stroke-width:1.0;"/><text fill="#000000" font-family="sans-serif" font-size="14" lengthAdjust="spacing" textLength="110" x="1232" y="100.752">Desenhar() : void</text><ellipse cx="1223" cy="114.1328" fill="#84BE84" rx="3" ry="3" style="stroke:#038048;stroke-width:1.0;"/><text fill="#000000" font-family="sans-serif" font-size="14" lengthAdjust="spacing" textLength="210" x="1232" y="118.3613">FilhoAdicionar(filho:Objeto) : void</text><ellipse cx="1223" cy="131.7422" fill="#84BE84" rx="3" ry="3" style="stroke:#038048;stroke-width:1.0;"/><text fill="#000000" font-family="sans-serif" font-size="14" lengthAdjust="spacing" textLength="208" x="1232" y="135.9707">FilhoRemover(filho:Objeto) : void</text><ellipse cx="1223" cy="149.3516" fill="#84BE84" rx="3" ry="3" style="stroke:#038048;stroke-width:1.0;"/><text fill="#000000" font-family="sans-serif" font-size="14" lengthAdjust="spacing" textLength="278" x="1232" y="153.5801">VerificaEstaDentroBBox(pto:Ponto4D) : bool</text></g><!--MD5=[9ac43fafcd0ede942dc8e681a30a1b52]
class Cor--><g id="elem_Cor"><rect fill="#F1F1F1" height="48" id="Cor" rx="2.5" ry="2.5" style="stroke:#181818;stroke-width:0.5;" width="55" x="1152.5" y="326.5"/><ellipse cx="1167.5" cy="342.5" fill="#ADD1B2" rx="11" ry="11" style="stroke:#181818;stroke-width:1.0;"/><path d="M1170.2656,338.375 Q1170.4219,338.1563 1170.6094,338.0469 Q1170.7969,337.9375 1171.0156,337.9375 Q1171.3906,337.9375 1171.625,338.2031 Q1171.8594,338.4531 1171.8594,339.0625 L1171.8594,340.5156 Q1171.8594,341.125 1171.625,341.3906 Q1171.3906,341.6563 1171.0156,341.6563 Q1170.6719,341.6563 1170.4688,341.4531 Q1170.2656,341.2656 1170.1563,340.75 Q1170.1094,340.3906 1169.9219,340.2031 Q1169.5938,339.8281 1168.9844,339.6094 Q1168.375,339.3906 1167.75,339.3906 Q1166.9844,339.3906 1166.3438,339.7188 Q1165.7188,340.0469 1165.2188,340.7969 Q1164.7344,341.5469 1164.7344,342.5781 L1164.7344,343.6719 Q1164.7344,344.9063 1165.625,345.7344 Q1166.5156,346.5469 1168.1094,346.5469 Q1169.0469,346.5469 1169.7031,346.2969 Q1170.0938,346.1406 1170.5156,345.7031 Q1170.7813,345.4375 1170.9219,345.3594 Q1171.0781,345.2813 1171.2813,345.2813 Q1171.6094,345.2813 1171.8594,345.5469 Q1172.125,345.7969 1172.125,346.1406 Q1172.125,346.4844 1171.7813,346.8906 Q1171.2813,347.4688 1170.4844,347.7969 Q1169.4063,348.25 1168.1094,348.25 Q1166.5938,348.25 1165.3906,347.625 Q1164.4063,347.125 1163.7188,346.0625 Q1163.0313,344.9844 1163.0313,343.7031 L1163.0313,342.5469 Q1163.0313,341.2188 1163.6406,340.0781 Q1164.2656,338.9219 1165.3594,338.3125 Q1166.4531,337.6875 1167.6875,337.6875 Q1168.4219,337.6875 1169.0625,337.8594 Q1169.7188,338.0156 1170.2656,338.375 Z " fill="#000000"/><text fill="#000000" font-family="sans-serif" font-size="14" lengthAdjust="spacing" textLength="23" x="1181.5" y="348.2285">Cor</text><line style="stroke:#181818;stroke-width:0.5;" x1="1153.5" x2="1206.5" y1="358.5" y2="358.5"/><line style="stroke:#181818;stroke-width:0.5;" x1="1153.5" x2="1206.5" y1="366.5" y2="366.5"/></g><!--MD5=[38e8fced9e943fac45fdba9ac5db991f]
class PrimitiveType--><g id="elem_PrimitiveType"><rect fill="#F1F1F1" height="48" id="PrimitiveType" rx="2.5" ry="2.5" style="stroke:#181818;stroke-width:0.5;" width="117" x="1242.5" y="326.5"/><ellipse cx="1257.5" cy="342.5" fill="#ADD1B2" rx="11" ry="11" style="stroke:#181818;stroke-width:1.0;"/><path d="M1260.2656,338.375 Q1260.4219,338.1563 1260.6094,338.0469 Q1260.7969,337.9375 1261.0156,337.9375 Q1261.3906,337.9375 1261.625,338.2031 Q1261.8594,338.4531 1261.8594,339.0625 L1261.8594,340.5156 Q1261.8594,341.125 1261.625,341.3906 Q1261.3906,341.6563 1261.0156,341.6563 Q1260.6719,341.6563 1260.4688,341.4531 Q1260.2656,341.2656 1260.1563,340.75 Q1260.1094,340.3906 1259.9219,340.2031 Q1259.5938,339.8281 1258.9844,339.6094 Q1258.375,339.3906 1257.75,339.3906 Q1256.9844,339.3906 1256.3438,339.7188 Q1255.7188,340.0469 1255.2188,340.7969 Q1254.7344,341.5469 1254.7344,342.5781 L1254.7344,343.6719 Q1254.7344,344.9063 1255.625,345.7344 Q1256.5156,346.5469 1258.1094,346.5469 Q1259.0469,346.5469 1259.7031,346.2969 Q1260.0938,346.1406 1260.5156,345.7031 Q1260.7813,345.4375 1260.9219,345.3594 Q1261.0781,345.2813 1261.2813,345.2813 Q1261.6094,345.2813 1261.8594,345.5469 Q1262.125,345.7969 1262.125,346.1406 Q1262.125,346.4844 1261.7813,346.8906 Q1261.2813,347.4688 1260.4844,347.7969 Q1259.4063,348.25 1258.1094,348.25 Q1256.5938,348.25 1255.3906,347.625 Q1254.4063,347.125 1253.7188,346.0625 Q1253.0313,344.9844 1253.0313,343.7031 L1253.0313,342.5469 Q1253.0313,341.2188 1253.6406,340.0781 Q1254.2656,338.9219 1255.3594,338.3125 Q1256.4531,337.6875 1257.6875,337.6875 Q1258.4219,337.6875 1259.0625,337.8594 Q1259.7188,338.0156 1260.2656,338.375 Z " fill="#000000"/><text fill="#000000" font-family="sans-serif" font-size="14" lengthAdjust="spacing" textLength="85" x="1271.5" y="348.2285">PrimitiveType</text><line style="stroke:#181818;stroke-width:0.5;" x1="1243.5" x2="1358.5" y1="358.5" y2="358.5"/><line style="stroke:#181818;stroke-width:0.5;" x1="1243.5" x2="1358.5" y1="366.5" y2="366.5"/></g><!--MD5=[ea10f8dc465baf5e542f54928f2443c8]
class BBox--><g id="elem_BBox"><rect fill="#F1F1F1" height="48" id="BBox" rx="2.5" ry="2.5" style="stroke:#181818;stroke-width:0.5;" width="64" x="1395" y="326.5"/><ellipse cx="1410" cy="342.5" fill="#ADD1B2" rx="11" ry="11" style="stroke:#181818;stroke-width:1.0;"/><path d="M1412.7656,338.375 Q1412.9219,338.1563 1413.1094,338.0469 Q1413.2969,337.9375 1413.5156,337.9375 Q1413.8906,337.9375 1414.125,338.2031 Q1414.3594,338.4531 1414.3594,339.0625 L1414.3594,340.5156 Q1414.3594,341.125 1414.125,341.3906 Q1413.8906,341.6563 1413.5156,341.6563 Q1413.1719,341.6563 1412.9688,341.4531 Q1412.7656,341.2656 1412.6563,340.75 Q1412.6094,340.3906 1412.4219,340.2031 Q1412.0938,339.8281 1411.4844,339.6094 Q1410.875,339.3906 1410.25,339.3906 Q1409.4844,339.3906 1408.8438,339.7188 Q1408.2188,340.0469 1407.7188,340.7969 Q1407.2344,341.5469 1407.2344,342.5781 L1407.2344,343.6719 Q1407.2344,344.9063 1408.125,345.7344 Q1409.0156,346.5469 1410.6094,346.5469 Q1411.5469,346.5469 1412.2031,346.2969 Q1412.5938,346.1406 1413.0156,345.7031 Q1413.2813,345.4375 1413.4219,345.3594 Q1413.5781,345.2813 1413.7813,345.2813 Q1414.1094,345.2813 1414.3594,345.5469 Q1414.625,345.7969 1414.625,346.1406 Q1414.625,346.4844 1414.2813,346.8906 Q1413.7813,347.4688 1412.9844,347.7969 Q1411.9063,348.25 1410.6094,348.25 Q1409.0938,348.25 1407.8906,347.625 Q1406.9063,347.125 1406.2188,346.0625 Q1405.5313,344.9844 1405.5313,343.7031 L1405.5313,342.5469 Q1405.5313,341.2188 1406.1406,340.0781 Q1406.7656,338.9219 1407.8594,338.3125 Q1408.9531,337.6875 1410.1875,337.6875 Q1410.9219,337.6875 1411.5625,337.8594 Q1412.2188,338.0156 1412.7656,338.375 Z " fill="#000000"/><text fill="#000000" font-family="sans-serif" font-size="14" lengthAdjust="spacing" textLength="32" x="1424" y="348.2285">BBox</text><line style="stroke:#181818;stroke-width:0.5;" x1="1396" x2="1458" y1="358.5" y2="358.5"/><line style="stroke:#181818;stroke-width:0.5;" x1="1396" x2="1458" y1="366.5" y2="366.5"/></g><!--MD5=[8b9e0d00865063ef789ad294aa32e6ea]
class ObjetoGeometria--><g id="elem_ObjetoGeometria"><rect codeLine="21" fill="#F1F1F1" height="259.3125" id="ObjetoGeometria" rx="2.5" ry="2.5" style="stroke:#181818;stroke-width:0.5;" width="445" x="1494.5" y="221"/><ellipse cx="1658.75" cy="237" fill="#A9DCDF" rx="11" ry="11" style="stroke:#181818;stroke-width:1.0;"/><path d="M1660.9375,238.7656 L1656.7969,238.7656 L1656.375,239.7969 L1656.7969,239.7969 Q1657.4063,239.7969 1657.6719,240.0313 Q1657.9375,240.2656 1657.9375,240.6563 Q1657.9375,241.0313 1657.6719,241.2656 Q1657.4063,241.5 1656.7969,241.5 L1654.5,241.5 Q1653.8906,241.5 1653.6406,241.2656 Q1653.375,241.0313 1653.375,240.6406 Q1653.375,240.2656 1653.6563,240.0313 Q1653.9219,239.7813 1654.5469,239.7969 L1657.2188,233.1406 L1656.1094,233.1406 Q1655.5,233.1406 1655.2344,232.9063 Q1654.9688,232.6719 1654.9688,232.2813 Q1654.9688,231.9063 1655.2344,231.6719 Q1655.5,231.4375 1656.1094,231.4375 L1659.7813,231.4375 L1663.1719,239.7969 Q1663.7656,239.7969 1663.9531,239.9375 Q1664.3438,240.2031 1664.3438,240.6563 Q1664.3438,241.0313 1664.0781,241.2656 Q1663.8281,241.5 1663.2188,241.5 L1660.9219,241.5 Q1660.3125,241.5 1660.0469,241.2656 Q1659.7813,241.0313 1659.7813,240.6406 Q1659.7813,240.2656 1660.0469,240.0313 Q1660.3125,239.7969 1660.9219,239.7969 L1661.3438,239.7969 L1660.9375,238.7656 Z M1660.2188,237.0625 L1658.8594,233.6875 L1657.4844,237.0625 L1660.2188,237.0625 Z " fill="#000000"/><text fill="#000000" font-family="sans-serif" font-size="14" font-style="italic" lengthAdjust="spacing" textLength="108" x="1679.25" y="242.7285">ObjetoGeometria</text><line style="stroke:#181818;stroke-width:0.5;" x1="1495.5" x2="1938.5" y1="253" y2="253"/><line style="stroke:#181818;stroke-width:0.5;" x1="1495.5" x2="1938.5" y1="261" y2="261"/><ellipse cx="1505.5" cy="275.3047" fill="#84BE84" rx="3" ry="3" style="stroke:#038048;stroke-width:1.0;"/><text fill="#000000" font-family="sans-serif" font-size="14" lengthAdjust="spacing" textLength="288" x="1514.5" y="279.5332">ObjetoGeometria(rotulo:string, paiRef:Objeto)</text><ellipse cx="1505.5" cy="292.9141" fill="#84BE84" rx="3" ry="3" style="stroke:#038048;stroke-width:1.0;"/><text fill="#000000" font-family="sans-serif" font-size="14" lengthAdjust="spacing" textLength="230" x="1514.5" y="297.1426">PontosAdicionar(pto:Ponto4D) : void</text><ellipse cx="1505.5" cy="310.5234" fill="#84BE84" rx="3" ry="3" style="stroke:#038048;stroke-width:1.0;"/><text fill="#000000" font-family="sans-serif" font-size="14" lengthAdjust="spacing" textLength="230" x="1514.5" y="314.752">PontosRemoverAt(posicao:int) : void</text><ellipse cx="1505.5" cy="328.1328" fill="#84BE84" rx="3" ry="3" style="stroke:#038048;stroke-width:1.0;"/><text fill="#000000" font-family="sans-serif" font-size="14" lengthAdjust="spacing" textLength="187" x="1514.5" y="332.3613">PontosRemoverUltimo() : void</text><ellipse cx="1505.5" cy="345.7422" fill="#84BE84" rx="3" ry="3" style="stroke:#038048;stroke-width:1.0;"/><text fill="#000000" font-family="sans-serif" font-size="14" lengthAdjust="spacing" textLength="159" x="1514.5" y="349.9707">PontosUltimo() : Ponto4D</text><ellipse cx="1505.5" cy="363.3516" fill="#84BE84" rx="3" ry="3" style="stroke:#038048;stroke-width:1.0;"/><text fill="#000000" font-family="sans-serif" font-size="14" lengthAdjust="spacing" textLength="289" x="1514.5" y="367.5801">PontosAlterar(pto:Ponto4D, posicao:int) : void</text><ellipse cx="1505.5" cy="380.9609" fill="#84BE84" rx="3" ry="3" style="stroke:#038048;stroke-width:1.0;"/><text fill="#000000" font-family="sans-serif" font-size="14" lengthAdjust="spacing" textLength="409" x="1514.5" y="385.1895">VerticeMaisProximo(pontoMouse:Ponto4D, isRemove:bool) : void</text><ellipse cx="1505.5" cy="398.5703" fill="#84BE84" rx="3" ry="3" style="stroke:#038048;stroke-width:1.0;"/><text fill="#000000" font-family="sans-serif" font-size="14" lengthAdjust="spacing" textLength="358" x="1514.5" y="402.7988">ScanlineIntesec(y:double, y1:double, y2:double) : double</text><ellipse cx="1505.5" cy="416.1797" fill="#84BE84" rx="3" ry="3" style="stroke:#038048;stroke-width:1.0;"/><text fill="#000000" font-family="sans-serif" font-size="14" lengthAdjust="spacing" textLength="245" x="1514.5" y="420.4082">ScanLine(pontoMouse:Ponto4D) : bool</text><ellipse cx="1505.5" cy="433.7891" fill="#84BE84" rx="3" ry="3" style="stroke:#038048;stroke-width:1.0;"/><text fill="#000000" font-family="sans-serif" font-size="14" lengthAdjust="spacing" textLength="371" x="1514.5" y="438.0176">ScanlineCalcularXi(x1:double, x2:double, t:double) : double</text><ellipse cx="1505.5" cy="451.3984" fill="#84BE84" rx="3" ry="3" style="stroke:#038048;stroke-width:1.0;"/><text fill="#000000" font-family="sans-serif" font-size="14" lengthAdjust="spacing" textLength="419" x="1514.5" y="455.627">ScanLine(pontoMouse:Ponto4D, listaPontos:List&lt;Ponto4D&gt;) : bool</text><ellipse cx="1505.5" cy="469.0078" fill="#84BE84" rx="3" ry="3" style="stroke:#038048;stroke-width:1.0;"/><text fill="#000000" font-family="sans-serif" font-size="14" lengthAdjust="spacing" textLength="183" x="1514.5" y="473.2363">«override» ToString() : string</text></g><!--MD5=[b6968d6f0311dc2ba07018bef6e7bfd3]
class Retangulo--><g id="elem_Retangulo"><rect codeLine="36" fill="#F1F1F1" height="83.2188" id="Retangulo" rx="2.5" ry="2.5" style="stroke:#181818;stroke-width:0.5;" width="527" x="829.5" y="540"/><ellipse cx="1056.25" cy="556" fill="#ADD1B2" rx="11" ry="11" style="stroke:#181818;stroke-width:1.0;"/><path d="M1059.0156,551.875 Q1059.1719,551.6563 1059.3594,551.5469 Q1059.5469,551.4375 1059.7656,551.4375 Q1060.1406,551.4375 1060.375,551.7031 Q1060.6094,551.9531 1060.6094,552.5625 L1060.6094,554.0156 Q1060.6094,554.625 1060.375,554.8906 Q1060.1406,555.1563 1059.7656,555.1563 Q1059.4219,555.1563 1059.2188,554.9531 Q1059.0156,554.7656 1058.9063,554.25 Q1058.8594,553.8906 1058.6719,553.7031 Q1058.3438,553.3281 1057.7344,553.1094 Q1057.125,552.8906 1056.5,552.8906 Q1055.7344,552.8906 1055.0938,553.2188 Q1054.4688,553.5469 1053.9688,554.2969 Q1053.4844,555.0469 1053.4844,556.0781 L1053.4844,557.1719 Q1053.4844,558.4063 1054.375,559.2344 Q1055.2656,560.0469 1056.8594,560.0469 Q1057.7969,560.0469 1058.4531,559.7969 Q1058.8438,559.6406 1059.2656,559.2031 Q1059.5313,558.9375 1059.6719,558.8594 Q1059.8281,558.7813 1060.0313,558.7813 Q1060.3594,558.7813 1060.6094,559.0469 Q1060.875,559.2969 1060.875,559.6406 Q1060.875,559.9844 1060.5313,560.3906 Q1060.0313,560.9688 1059.2344,561.2969 Q1058.1563,561.75 1056.8594,561.75 Q1055.3438,561.75 1054.1406,561.125 Q1053.1563,560.625 1052.4688,559.5625 Q1051.7813,558.4844 1051.7813,557.2031 L1051.7813,556.0469 Q1051.7813,554.7188 1052.3906,553.5781 Q1053.0156,552.4219 1054.1094,551.8125 Q1055.2031,551.1875 1056.4375,551.1875 Q1057.1719,551.1875 1057.8125,551.3594 Q1058.4688,551.5156 1059.0156,551.875 Z " fill="#000000"/><text fill="#000000" font-family="sans-serif" font-size="14" lengthAdjust="spacing" textLength="65" x="1076.75" y="561.7285">Retangulo</text><line style="stroke:#181818;stroke-width:0.5;" x1="830.5" x2="1355.5" y1="572" y2="572"/><line style="stroke:#181818;stroke-width:0.5;" x1="830.5" x2="1355.5" y1="580" y2="580"/><ellipse cx="840.5" cy="594.3047" fill="#84BE84" rx="3" ry="3" style="stroke:#038048;stroke-width:1.0;"/><text fill="#000000" font-family="sans-serif" font-size="14" lengthAdjust="spacing" textLength="501" x="849.5" y="598.5332">Retangulo(rotulo:string, paiRef:Objeto, ptoInfEsq:Ponto4D, ptoSupDir:Ponto4D)</text><ellipse cx="840.5" cy="611.9141" fill="#84BE84" rx="3" ry="3" style="stroke:#038048;stroke-width:1.0;"/><text fill="#000000" font-family="sans-serif" font-size="14" lengthAdjust="spacing" textLength="183" x="849.5" y="616.1426">«override» ToString() : string</text></g><!--MD5=[14270d418d81d90ef0399f0e3d0d5129]
class Poligono--><g id="elem_Poligono"><rect codeLine="41" fill="#F1F1F1" height="83.2188" id="Poligono" rx="2.5" ry="2.5" style="stroke:#181818;stroke-width:0.5;" width="239" x="1391.5" y="540"/><ellipse cx="1479.25" cy="556" fill="#ADD1B2" rx="11" ry="11" style="stroke:#181818;stroke-width:1.0;"/><path d="M1482.0156,551.875 Q1482.1719,551.6563 1482.3594,551.5469 Q1482.5469,551.4375 1482.7656,551.4375 Q1483.1406,551.4375 1483.375,551.7031 Q1483.6094,551.9531 1483.6094,552.5625 L1483.6094,554.0156 Q1483.6094,554.625 1483.375,554.8906 Q1483.1406,555.1563 1482.7656,555.1563 Q1482.4219,555.1563 1482.2188,554.9531 Q1482.0156,554.7656 1481.9063,554.25 Q1481.8594,553.8906 1481.6719,553.7031 Q1481.3438,553.3281 1480.7344,553.1094 Q1480.125,552.8906 1479.5,552.8906 Q1478.7344,552.8906 1478.0938,553.2188 Q1477.4688,553.5469 1476.9688,554.2969 Q1476.4844,555.0469 1476.4844,556.0781 L1476.4844,557.1719 Q1476.4844,558.4063 1477.375,559.2344 Q1478.2656,560.0469 1479.8594,560.0469 Q1480.7969,560.0469 1481.4531,559.7969 Q1481.8438,559.6406 1482.2656,559.2031 Q1482.5313,558.9375 1482.6719,558.8594 Q1482.8281,558.7813 1483.0313,558.7813 Q1483.3594,558.7813 1483.6094,559.0469 Q1483.875,559.2969 1483.875,559.6406 Q1483.875,559.9844 1483.5313,560.3906 Q1483.0313,560.9688 1482.2344,561.2969 Q1481.1563,561.75 1479.8594,561.75 Q1478.3438,561.75 1477.1406,561.125 Q1476.1563,560.625 1475.4688,559.5625 Q1474.7813,558.4844 1474.7813,557.2031 L1474.7813,556.0469 Q1474.7813,554.7188 1475.3906,553.5781 Q1476.0156,552.4219 1477.1094,551.8125 Q1478.2031,551.1875 1479.4375,551.1875 Q1480.1719,551.1875 1480.8125,551.3594 Q1481.4688,551.5156 1482.0156,551.875 Z " fill="#000000"/><text fill="#000000" font-family="sans-serif" font-size="14" lengthAdjust="spacing" textLength="55" x="1499.75" y="561.7285">Poligono</text><line style="stroke:#181818;stroke-width:0.5;" x1="1392.5" x2="1629.5" y1="572" y2="572"/><line style="stroke:#181818;stroke-width:0.5;" x1="1392.5" x2="1629.5" y1="580" y2="580"/><ellipse cx="1402.5" cy="594.3047" fill="#84BE84" rx="3" ry="3" style="stroke:#038048;stroke-width:1.0;"/><text fill="#000000" font-family="sans-serif" font-size="14" lengthAdjust="spacing" textLength="213" x="1411.5" y="598.5332">Poligono(rotulo:string, pai:Objeto)</text><ellipse cx="1402.5" cy="611.9141" fill="#84BE84" rx="3" ry="3" style="stroke:#038048;stroke-width:1.0;"/><text fill="#000000" font-family="sans-serif" font-size="14" lengthAdjust="spacing" textLength="183" x="1411.5" y="616.1426">«override» ToString() : string</text></g><!--MD5=[7285b5824e67b16848be7ff6288389e6]
class Utilitario--><g id="elem_Utilitario"><rect codeLine="46" fill="#F1F1F1" height="65.6094" id="Utilitario" rx="2.5" ry="2.5" style="stroke:#181818;stroke-width:0.5;" width="161" x="260.5" y="51"/><ellipse cx="311.25" cy="67" fill="#A9DCDF" rx="11" ry="11" style="stroke:#181818;stroke-width:1.0;"/><path d="M313.4375,68.7656 L309.2969,68.7656 L308.875,69.7969 L309.2969,69.7969 Q309.9063,69.7969 310.1719,70.0313 Q310.4375,70.2656 310.4375,70.6563 Q310.4375,71.0313 310.1719,71.2656 Q309.9063,71.5 309.2969,71.5 L307,71.5 Q306.3906,71.5 306.1406,71.2656 Q305.875,71.0313 305.875,70.6406 Q305.875,70.2656 306.1563,70.0313 Q306.4219,69.7813 307.0469,69.7969 L309.7188,63.1406 L308.6094,63.1406 Q308,63.1406 307.7344,62.9063 Q307.4688,62.6719 307.4688,62.2813 Q307.4688,61.9063 307.7344,61.6719 Q308,61.4375 308.6094,61.4375 L312.2813,61.4375 L315.6719,69.7969 Q316.2656,69.7969 316.4531,69.9375 Q316.8438,70.2031 316.8438,70.6563 Q316.8438,71.0313 316.5781,71.2656 Q316.3281,71.5 315.7188,71.5 L313.4219,71.5 Q312.8125,71.5 312.5469,71.2656 Q312.2813,71.0313 312.2813,70.6406 Q312.2813,70.2656 312.5469,70.0313 Q312.8125,69.7969 313.4219,69.7969 L313.8438,69.7969 L313.4375,68.7656 Z M312.7188,67.0625 L311.3594,63.6875 L309.9844,67.0625 L312.7188,67.0625 Z " fill="#000000"/><text fill="#000000" font-family="sans-serif" font-size="14" font-style="italic" lengthAdjust="spacing" textLength="51" x="331.75" y="72.7285">Utilitario</text><line style="stroke:#181818;stroke-width:0.5;" x1="261.5" x2="420.5" y1="83" y2="83"/><line style="stroke:#181818;stroke-width:0.5;" x1="261.5" x2="420.5" y1="91" y2="91"/><ellipse cx="271.5" cy="105.3047" fill="#84BE84" rx="3" ry="3" style="stroke:#038048;stroke-width:1.0;"/><text fill="#000000" font-family="sans-serif" font-size="14" lengthAdjust="spacing" text-decoration="underline" textLength="135" x="280.5" y="109.5332">AjudaTeclado() : void</text></g><!--MD5=[5650d724fe4a8bb070f5bb710507d40c]
class Privado_BBox--><g id="elem_Privado_BBox"><rect codeLine="49" fill="#F1F1F1" height="65.6094" id="Privado_BBox" rx="2.5" ry="2.5" style="stroke:#181818;stroke-width:0.5;" width="272" x="7" y="317.5"/><ellipse cx="95.25" cy="333.5" fill="#A9DCDF" rx="11" ry="11" style="stroke:#181818;stroke-width:1.0;"/><path d="M97.4375,335.2656 L93.2969,335.2656 L92.875,336.2969 L93.2969,336.2969 Q93.9063,336.2969 94.1719,336.5313 Q94.4375,336.7656 94.4375,337.1563 Q94.4375,337.5313 94.1719,337.7656 Q93.9063,338 93.2969,338 L91,338 Q90.3906,338 90.1406,337.7656 Q89.875,337.5313 89.875,337.1406 Q89.875,336.7656 90.1563,336.5313 Q90.4219,336.2813 91.0469,336.2969 L93.7188,329.6406 L92.6094,329.6406 Q92,329.6406 91.7344,329.4063 Q91.4688,329.1719 91.4688,328.7813 Q91.4688,328.4063 91.7344,328.1719 Q92,327.9375 92.6094,327.9375 L96.2813,327.9375 L99.6719,336.2969 Q100.2656,336.2969 100.4531,336.4375 Q100.8438,336.7031 100.8438,337.1563 Q100.8438,337.5313 100.5781,337.7656 Q100.3281,338 99.7188,338 L97.4219,338 Q96.8125,338 96.5469,337.7656 Q96.2813,337.5313 96.2813,337.1406 Q96.2813,336.7656 96.5469,336.5313 Q96.8125,336.2969 97.4219,336.2969 L97.8438,336.2969 L97.4375,335.2656 Z M96.7188,333.5625 L95.3594,330.1875 L93.9844,333.5625 L96.7188,333.5625 Z " fill="#000000"/><text fill="#000000" font-family="sans-serif" font-size="14" font-style="italic" lengthAdjust="spacing" textLength="87" x="115.75" y="339.2285">Privado_BBox</text><line style="stroke:#181818;stroke-width:0.5;" x1="8" x2="278" y1="349.5" y2="349.5"/><line style="stroke:#181818;stroke-width:0.5;" x1="8" x2="278" y1="357.5" y2="357.5"/><ellipse cx="18" cy="371.8047" fill="#84BE84" rx="3" ry="3" style="stroke:#038048;stroke-width:1.0;"/><text fill="#000000" font-family="sans-serif" font-size="14" lengthAdjust="spacing" text-decoration="underline" textLength="246" x="27" y="376.0332">Dentro(bBox:BBox, pto:Ponto4D) : bool</text></g><!--MD5=[c3c34a12a27bba7e909822120bf61f6f]
class Privado_Circulo--><g id="elem_Privado_Circulo"><rect codeLine="52" fill="#F1F1F1" height="83.2188" id="Privado_Circulo" rx="2.5" ry="2.5" style="stroke:#181818;stroke-width:0.5;" width="515" x="1665.5" y="540"/><ellipse cx="1868.75" cy="556" fill="#ADD1B2" rx="11" ry="11" style="stroke:#181818;stroke-width:1.0;"/><path d="M1871.5156,551.875 Q1871.6719,551.6563 1871.8594,551.5469 Q1872.0469,551.4375 1872.2656,551.4375 Q1872.6406,551.4375 1872.875,551.7031 Q1873.1094,551.9531 1873.1094,552.5625 L1873.1094,554.0156 Q1873.1094,554.625 1872.875,554.8906 Q1872.6406,555.1563 1872.2656,555.1563 Q1871.9219,555.1563 1871.7188,554.9531 Q1871.5156,554.7656 1871.4063,554.25 Q1871.3594,553.8906 1871.1719,553.7031 Q1870.8438,553.3281 1870.2344,553.1094 Q1869.625,552.8906 1869,552.8906 Q1868.2344,552.8906 1867.5938,553.2188 Q1866.9688,553.5469 1866.4688,554.2969 Q1865.9844,555.0469 1865.9844,556.0781 L1865.9844,557.1719 Q1865.9844,558.4063 1866.875,559.2344 Q1867.7656,560.0469 1869.3594,560.0469 Q1870.2969,560.0469 1870.9531,559.7969 Q1871.3438,559.6406 1871.7656,559.2031 Q1872.0313,558.9375 1872.1719,558.8594 Q1872.3281,558.7813 1872.5313,558.7813 Q1872.8594,558.7813 1873.1094,559.0469 Q1873.375,559.2969 1873.375,559.6406 Q1873.375,559.9844 1873.0313,560.3906 Q1872.5313,560.9688 1871.7344,561.2969 Q1870.6563,561.75 1869.3594,561.75 Q1867.8438,561.75 1866.6406,561.125 Q1865.6563,560.625 1864.9688,559.5625 Q1864.2813,558.4844 1864.2813,557.2031 L1864.2813,556.0469 Q1864.2813,554.7188 1864.8906,553.5781 Q1865.5156,552.4219 1866.6094,551.8125 Q1867.7031,551.1875 1868.9375,551.1875 Q1869.6719,551.1875 1870.3125,551.3594 Q1870.9688,551.5156 1871.5156,551.875 Z " fill="#000000"/><text fill="#000000" font-family="sans-serif" font-size="14" lengthAdjust="spacing" textLength="100" x="1889.25" y="561.7285">Privado_Circulo</text><line style="stroke:#181818;stroke-width:0.5;" x1="1666.5" x2="2179.5" y1="572" y2="572"/><line style="stroke:#181818;stroke-width:0.5;" x1="1666.5" x2="2179.5" y1="580" y2="580"/><ellipse cx="1676.5" cy="594.3047" fill="#84BE84" rx="3" ry="3" style="stroke:#038048;stroke-width:1.0;"/><text fill="#000000" font-family="sans-serif" font-size="14" lengthAdjust="spacing" textLength="489" x="1685.5" y="598.5332">Privado_Circulo(rotulo:string, paiRef:Objeto, ptoCentro:Ponto4D, raio:double)</text><ellipse cx="1676.5" cy="611.9141" fill="#84BE84" rx="3" ry="3" style="stroke:#038048;stroke-width:1.0;"/><text fill="#000000" font-family="sans-serif" font-size="14" lengthAdjust="spacing" textLength="183" x="1685.5" y="616.1426">«override» ToString() : string</text></g><!--MD5=[57370106b09f55ffa37deb7835ffe78b]
class Matematica--><g id="elem_Matematica"><rect codeLine="57" fill="#F1F1F1" height="100.8281" id="Matematica" rx="2.5" ry="2.5" style="stroke:#181818;stroke-width:0.5;" width="484" x="314" y="300"/><ellipse cx="515.25" cy="316" fill="#A9DCDF" rx="11" ry="11" style="stroke:#181818;stroke-width:1.0;"/><path d="M517.4375,317.7656 L513.2969,317.7656 L512.875,318.7969 L513.2969,318.7969 Q513.9063,318.7969 514.1719,319.0313 Q514.4375,319.2656 514.4375,319.6563 Q514.4375,320.0313 514.1719,320.2656 Q513.9063,320.5 513.2969,320.5 L511,320.5 Q510.3906,320.5 510.1406,320.2656 Q509.875,320.0313 509.875,319.6406 Q509.875,319.2656 510.1563,319.0313 Q510.4219,318.7813 511.0469,318.7969 L513.7188,312.1406 L512.6094,312.1406 Q512,312.1406 511.7344,311.9063 Q511.4688,311.6719 511.4688,311.2813 Q511.4688,310.9063 511.7344,310.6719 Q512,310.4375 512.6094,310.4375 L516.2813,310.4375 L519.6719,318.7969 Q520.2656,318.7969 520.4531,318.9375 Q520.8438,319.2031 520.8438,319.6563 Q520.8438,320.0313 520.5781,320.2656 Q520.3281,320.5 519.7188,320.5 L517.4219,320.5 Q516.8125,320.5 516.5469,320.2656 Q516.2813,320.0313 516.2813,319.6406 Q516.2813,319.2656 516.5469,319.0313 Q516.8125,318.7969 517.4219,318.7969 L517.8438,318.7969 L517.4375,317.7656 Z M516.7188,316.0625 L515.3594,312.6875 L513.9844,316.0625 L516.7188,316.0625 Z " fill="#000000"/><text fill="#000000" font-family="sans-serif" font-size="14" font-style="italic" lengthAdjust="spacing" textLength="73" x="535.75" y="321.7285">Matematica</text><line style="stroke:#181818;stroke-width:0.5;" x1="315" x2="797" y1="332" y2="332"/><line style="stroke:#181818;stroke-width:0.5;" x1="315" x2="797" y1="340" y2="340"/><ellipse cx="325" cy="354.3047" fill="#84BE84" rx="3" ry="3" style="stroke:#038048;stroke-width:1.0;"/><text fill="#000000" font-family="sans-serif" font-size="14" lengthAdjust="spacing" text-decoration="underline" textLength="355" x="334" y="358.5332">GerarPtosCirculo(angulo:double, raio:double) : Ponto4D</text><ellipse cx="325" cy="371.9141" fill="#84BE84" rx="3" ry="3" style="stroke:#038048;stroke-width:1.0;"/><text fill="#000000" font-family="sans-serif" font-size="14" lengthAdjust="spacing" text-decoration="underline" textLength="303" x="334" y="376.1426">GerarPtosCirculoSimétrico(raio:double) : double</text><ellipse cx="325" cy="389.5234" fill="#84BE84" rx="3" ry="3" style="stroke:#038048;stroke-width:1.0;"/><text fill="#000000" font-family="sans-serif" font-size="14" lengthAdjust="spacing" text-decoration="underline" textLength="458" x="334" y="393.752">DistanciaEuclidiana(pontoLista:Ponto4D, pontoMouse:Ponto4D) : double</text></g><!--MD5=[48de76ac9e45cd2dd14a095e4e7d40a3]
class Privado_SegReta--><g id="elem_Privado_SegReta"><rect codeLine="62" fill="#F1F1F1" height="83.2188" id="Privado_SegReta" rx="2.5" ry="2.5" style="stroke:#181818;stroke-width:0.5;" width="528" x="2216" y="540"/><ellipse cx="2420.25" cy="556" fill="#ADD1B2" rx="11" ry="11" style="stroke:#181818;stroke-width:1.0;"/><path d="M2423.0156,551.875 Q2423.1719,551.6563 2423.3594,551.5469 Q2423.5469,551.4375 2423.7656,551.4375 Q2424.1406,551.4375 2424.375,551.7031 Q2424.6094,551.9531 2424.6094,552.5625 L2424.6094,554.0156 Q2424.6094,554.625 2424.375,554.8906 Q2424.1406,555.1563 2423.7656,555.1563 Q2423.4219,555.1563 2423.2188,554.9531 Q2423.0156,554.7656 2422.9063,554.25 Q2422.8594,553.8906 2422.6719,553.7031 Q2422.3438,553.3281 2421.7344,553.1094 Q2421.125,552.8906 2420.5,552.8906 Q2419.7344,552.8906 2419.0938,553.2188 Q2418.4688,553.5469 2417.9688,554.2969 Q2417.4844,555.0469 2417.4844,556.0781 L2417.4844,557.1719 Q2417.4844,558.4063 2418.375,559.2344 Q2419.2656,560.0469 2420.8594,560.0469 Q2421.7969,560.0469 2422.4531,559.7969 Q2422.8438,559.6406 2423.2656,559.2031 Q2423.5313,558.9375 2423.6719,558.8594 Q2423.8281,558.7813 2424.0313,558.7813 Q2424.3594,558.7813 2424.6094,559.0469 Q2424.875,559.2969 2424.875,559.6406 Q2424.875,559.9844 2424.5313,560.3906 Q2424.0313,560.9688 2423.2344,561.2969 Q2422.1563,561.75 2420.8594,561.75 Q2419.3438,561.75 2418.1406,561.125 Q2417.1563,560.625 2416.4688,559.5625 Q2415.7813,558.4844 2415.7813,557.2031 L2415.7813,556.0469 Q2415.7813,554.7188 2416.3906,553.5781 Q2417.0156,552.4219 2418.1094,551.8125 Q2419.2031,551.1875 2420.4375,551.1875 Q2421.1719,551.1875 2421.8125,551.3594 Q2422.4688,551.5156 2423.0156,551.875 Z " fill="#000000"/><text fill="#000000" font-family="sans-serif" font-size="14" lengthAdjust="spacing" textLength="111" x="2440.75" y="561.7285">Privado_SegReta</text><line style="stroke:#181818;stroke-width:0.5;" x1="2217" x2="2743" y1="572" y2="572"/><line style="stroke:#181818;stroke-width:0.5;" x1="2217" x2="2743" y1="580" y2="580"/><ellipse cx="2227" cy="594.3047" fill="#84BE84" rx="3" ry="3" style="stroke:#038048;stroke-width:1.0;"/><text fill="#000000" font-family="sans-serif" font-size="14" lengthAdjust="spacing" textLength="502" x="2236" y="598.5332">Privado_SegReta(rotulo:string, paiRef:Objeto, ptoIni:Ponto4D, ptoFim:Ponto4D)</text><ellipse cx="2227" cy="611.9141" fill="#84BE84" rx="3" ry="3" style="stroke:#038048;stroke-width:1.0;"/><text fill="#000000" font-family="sans-serif" font-size="14" lengthAdjust="spacing" textLength="183" x="2236" y="616.1426">«override» ToString() : string</text></g><!--MD5=[3c0e7ba23ee97378347dee0d1da8e8b4]
reverse link GameWindow to Mundo--><g id="link_GameWindow_Mundo"><path codeLine="9" d="M975,128.01 C975,175.02 975,250.24 975,299.76 " fill="none" id="GameWindow-backto-Mundo" style="stroke:#181818;stroke-width:1.0;"/><polygon fill="none" points="968,128.01,975,108.01,982,128.01,968,128.01" style="stroke:#181818;stroke-width:1.0;"/></g><!--MD5=[abb974133f481326665ca9332982bcdd]
link Objeto to Cor--><g id="link_Objeto_Cor"><path codeLine="18" d="M1273.82,161.15 C1255.92,179.39 1238.5,199.78 1225,221 C1204.93,252.54 1192.49,294.16 1185.9,321.36 " fill="none" id="Objeto-to-Cor" style="stroke:#181818;stroke-width:1.0;"/><polygon fill="#181818" points="1184.74,326.26,1190.6899,318.4115,1185.882,321.3922,1182.9014,316.5843,1184.74,326.26" style="stroke:#181818;stroke-width:1.0;"/><text fill="#000000" font-family="sans-serif" font-size="13" lengthAdjust="spacing" textLength="58" x="1120.5234" y="315.5387">ObjetoCor</text></g><!--MD5=[7e8630a5cd5ea67eab064634d547f460]
link Objeto to PrimitiveType--><g id="link_Objeto_PrimitiveType"><path codeLine="19" d="M1345.86,161.15 C1333.09,214.75 1316.73,283.45 1307.72,321.31 " fill="none" id="Objeto-to-PrimitiveType" style="stroke:#181818;stroke-width:1.0;"/><polygon fill="#181818" points="1306.55,326.21,1312.5434,318.3947,1307.719,321.3486,1304.7651,316.5242,1306.55,326.21" style="stroke:#181818;stroke-width:1.0;"/><text fill="#000000" font-family="sans-serif" font-size="13" lengthAdjust="spacing" textLength="73" x="1225.6191" y="315.4758">PrimitivaTipo</text></g><!--MD5=[ff34dbfed28166dc938de446fd84e6c0]
link Objeto to BBox--><g id="link_Objeto_BBox"><path codeLine="20" d="M1382.14,161.15 C1394.91,214.75 1411.27,283.45 1420.28,321.31 " fill="none" id="Objeto-to-BBox" style="stroke:#181818;stroke-width:1.0;"/><polygon fill="#181818" points="1421.45,326.21,1423.2349,316.5242,1420.281,321.3486,1415.4566,318.3947,1421.45,326.21" style="stroke:#181818;stroke-width:1.0;"/><text fill="#000000" font-family="sans-serif" font-size="13" lengthAdjust="spacing" textLength="32" x="1383.9278" y="315.4758">BBox</text></g><!--MD5=[a03c7e7dbc7aa919221c9dfab59c60ca]
reverse link Objeto to ObjetoGeometria--><g id="link_Objeto_ObjetoGeometria"><path codeLine="35" d="M1481.72,173.21 C1502.13,188.5 1523.73,204.68 1545.23,220.79 " fill="none" id="Objeto-backto-ObjetoGeometria" style="stroke:#181818;stroke-width:1.0;"/><polygon fill="none" points="1477.44,178.74,1465.63,161.15,1485.83,167.54,1477.44,178.74" style="stroke:#181818;stroke-width:1.0;"/></g><!--MD5=[26236c37487edb4672de193cef5bd1db]
reverse link ObjetoGeometria to Retangulo--><g id="link_ObjetoGeometria_Retangulo"><path codeLine="40" d="M1475.53,480.24 C1404.53,507.29 1341.37,525.48 1283.82,539.98 " fill="none" id="ObjetoGeometria-backto-Retangulo" style="stroke:#181818;stroke-width:1.0;"/><polygon fill="none" points="1473.08,473.69,1494.26,472.98,1478.14,486.74,1473.08,473.69" style="stroke:#181818;stroke-width:1.0;"/></g><!--MD5=[003750561b878f79e99cad8c4ca21fdc]
reverse link ObjetoGeometria to Poligono--><g id="link_ObjetoGeometria_Poligono"><path codeLine="45" d="M1587.82,495.1 C1573.27,511.27 1559.47,526.62 1547.68,539.72 " fill="none" id="ObjetoGeometria-backto-Poligono" style="stroke:#181818;stroke-width:1.0;"/><polygon fill="none" points="1582.77,490.24,1601.35,480.06,1593.18,499.61,1582.77,490.24" style="stroke:#181818;stroke-width:1.0;"/></g><!--MD5=[17d508597094ccb24ae336549ba236e1]
reverse link ObjetoGeometria to Privado_Circulo--><g id="link_ObjetoGeometria_Privado_Circulo"><path codeLine="56" d="M1846.18,495.1 C1860.73,511.27 1874.53,526.62 1886.32,539.72 " fill="none" id="ObjetoGeometria-backto-Privado_Circulo" style="stroke:#181818;stroke-width:1.0;"/><polygon fill="none" points="1840.82,499.61,1832.65,480.06,1851.23,490.24,1840.82,499.61" style="stroke:#181818;stroke-width:1.0;"/></g><!--MD5=[fba79b035eb861c3c10e58ba51297e23]
reverse link ObjetoGeometria to Privado_SegReta--><g id="link_ObjetoGeometria_Privado_SegReta"><path codeLine="66" d="M1959.18,424.19 C2086.73,462.47 2238.35,507.97 2345.01,539.99 " fill="none" id="ObjetoGeometria-backto-Privado_SegReta" style="stroke:#181818;stroke-width:1.0;"/><polygon fill="none" points="1956.89,430.81,1939.74,418.35,1960.91,417.4,1956.89,430.81" style="stroke:#181818;stroke-width:1.0;"/></g><!--MD5=[a483bab138f467cba5852ed02574ceb6]
@startuml
class Mundo {
    + {static} GetInstance(width:int, height:int) : Mundo
    mouseX : int
    mouseY : int
}
class Program {
    {static} Main(args:string[]) : void
}
GameWindow <|- - Mundo
abstract class Objeto {
    + PrimitivaTamanho : float <<get>> <<set>>
    + Objeto(rotulo:string, paiRef:Objeto)
    + Desenhar() : void
    + FilhoAdicionar(filho:Objeto) : void
    + FilhoRemover(filho:Objeto) : void
    + VerificaEstaDentroBBox(pto:Ponto4D) : bool
}
Objeto - -> "ObjetoCor" Cor
Objeto - -> "PrimitivaTipo" PrimitiveType
Objeto - -> "BBox" BBox
abstract class ObjetoGeometria {
    + ObjetoGeometria(rotulo:string, paiRef:Objeto)
    + PontosAdicionar(pto:Ponto4D) : void
    + PontosRemoverAt(posicao:int) : void
    + PontosRemoverUltimo() : void
    + PontosUltimo() : Ponto4D
    + PontosAlterar(pto:Ponto4D, posicao:int) : void
    + VerticeMaisProximo(pontoMouse:Ponto4D, isRemove:bool) : void
    + ScanlineIntesec(y:double, y1:double, y2:double) : double
    + ScanLine(pontoMouse:Ponto4D) : bool
    + ScanlineCalcularXi(x1:double, x2:double, t:double) : double
    + ScanLine(pontoMouse:Ponto4D, listaPontos:List<Ponto4D>) : bool
    + <<override>> ToString() : string
}
Objeto <|- - ObjetoGeometria
class Retangulo {
    + Retangulo(rotulo:string, paiRef:Objeto, ptoInfEsq:Ponto4D, ptoSupDir:Ponto4D)
    + <<override>> ToString() : string
}
ObjetoGeometria <|- - Retangulo
class Poligono {
    + Poligono(rotulo:string, pai:Objeto)
    + <<override>> ToString() : string
}
ObjetoGeometria <|- - Poligono
abstract class Utilitario {
    + {static} AjudaTeclado() : void
}
abstract class Privado_BBox {
    + {static} Dentro(bBox:BBox, pto:Ponto4D) : bool
}
class Privado_Circulo {
    + Privado_Circulo(rotulo:string, paiRef:Objeto, ptoCentro:Ponto4D, raio:double)
    + <<override>> ToString() : string
}
ObjetoGeometria <|- - Privado_Circulo
abstract class Matematica {
    + {static} GerarPtosCirculo(angulo:double, raio:double) : Ponto4D
    + {static} GerarPtosCirculoSimétrico(raio:double) : double
    + {static} DistanciaEuclidiana(pontoLista:Ponto4D, pontoMouse:Ponto4D) : double
}
class Privado_SegReta {
    + Privado_SegReta(rotulo:string, paiRef:Objeto, ptoIni:Ponto4D, ptoFim:Ponto4D)
    + <<override>> ToString() : string
}
ObjetoGeometria <|- - Privado_SegReta
@enduml

PlantUML version 1.2022.7(Mon Aug 22 14:01:30 BRT 2022)
(GPL source distribution)
Java Runtime: Java(TM) SE Runtime Environment
JVM: Java HotSpot(TM) 64-Bit Server VM
Default Encoding: Cp1252
Language: pt
Country: BR
--></g></svg>