<?xml version="1.0" encoding="UTF-8" standalone="no"?><svg xmlns="http://www.w3.org/2000/svg" xmlns:xlink="http://www.w3.org/1999/xlink" contentStyleType="text/css" height="912px" preserveAspectRatio="none" style="width:4297px;height:912px;background:#FFFFFF;" version="1.1" viewBox="0 0 4297 912" width="4297px" zoomAndPan="magnify"><defs/><g><!--MD5=[919386ce46a6a5a7c71af782f732246a]
class Mundo--><g id="elem_Mundo"><rect codeLine="1" fill="#F1F1F1" height="100.8281" id="Mundo" rx="2.5" ry="2.5" style="stroke:#181818;stroke-width:0.5;" width="284" x="1412" y="467.5"/><ellipse cx="1528.25" cy="483.5" fill="#ADD1B2" rx="11" ry="11" style="stroke:#181818;stroke-width:1.0;"/><path d="M1531.0156,479.375 Q1531.1719,479.1563 1531.3594,479.0469 Q1531.5469,478.9375 1531.7656,478.9375 Q1532.1406,478.9375 1532.375,479.2031 Q1532.6094,479.4531 1532.6094,480.0625 L1532.6094,481.5156 Q1532.6094,482.125 1532.375,482.3906 Q1532.1406,482.6563 1531.7656,482.6563 Q1531.4219,482.6563 1531.2188,482.4531 Q1531.0156,482.2656 1530.9063,481.75 Q1530.8594,481.3906 1530.6719,481.2031 Q1530.3438,480.8281 1529.7344,480.6094 Q1529.125,480.3906 1528.5,480.3906 Q1527.7344,480.3906 1527.0938,480.7188 Q1526.4688,481.0469 1525.9688,481.7969 Q1525.4844,482.5469 1525.4844,483.5781 L1525.4844,484.6719 Q1525.4844,485.9063 1526.375,486.7344 Q1527.2656,487.5469 1528.8594,487.5469 Q1529.7969,487.5469 1530.4531,487.2969 Q1530.8438,487.1406 1531.2656,486.7031 Q1531.5313,486.4375 1531.6719,486.3594 Q1531.8281,486.2813 1532.0313,486.2813 Q1532.3594,486.2813 1532.6094,486.5469 Q1532.875,486.7969 1532.875,487.1406 Q1532.875,487.4844 1532.5313,487.8906 Q1532.0313,488.4688 1531.2344,488.7969 Q1530.1563,489.25 1528.8594,489.25 Q1527.3438,489.25 1526.1406,488.625 Q1525.1563,488.125 1524.4688,487.0625 Q1523.7813,485.9844 1523.7813,484.7031 L1523.7813,483.5469 Q1523.7813,482.2188 1524.3906,481.0781 Q1525.0156,479.9219 1526.1094,479.3125 Q1527.2031,478.6875 1528.4375,478.6875 Q1529.1719,478.6875 1529.8125,478.8594 Q1530.4688,479.0156 1531.0156,479.375 Z " fill="#000000"/><text fill="#000000" font-family="sans-serif" font-size="14" lengthAdjust="spacing" textLength="43" x="1548.75" y="489.2285">Mundo</text><line style="stroke:#181818;stroke-width:0.5;" x1="1413" x2="1695" y1="499.5" y2="499.5"/><text fill="#000000" font-family="sans-serif" font-size="14" lengthAdjust="spacing" textLength="77" x="1418" y="518.0332">mouseX : int</text><text fill="#000000" font-family="sans-serif" font-size="14" lengthAdjust="spacing" textLength="78" x="1418" y="535.6426">mouseY : int</text><line style="stroke:#181818;stroke-width:0.5;" x1="1413" x2="1695" y1="542.7188" y2="542.7188"/><ellipse cx="1423" cy="557.0234" fill="#84BE84" rx="3" ry="3" style="stroke:#038048;stroke-width:1.0;"/><text fill="#000000" font-family="sans-serif" font-size="14" lengthAdjust="spacing" text-decoration="underline" textLength="258" x="1432" y="561.252">GetInstance(width:int, height:int) : Mundo</text></g><!--MD5=[175f95e045c1a44aed0b30df3abe0e5c]
class Program--><g id="elem_Program"><rect codeLine="6" fill="#F1F1F1" height="65.6094" id="Program" rx="2.5" ry="2.5" style="stroke:#181818;stroke-width:0.5;" width="165" x="60.5" y="121.5"/><ellipse cx="111.75" cy="137.5" fill="#ADD1B2" rx="11" ry="11" style="stroke:#181818;stroke-width:1.0;"/><path d="M114.5156,133.375 Q114.6719,133.1563 114.8594,133.0469 Q115.0469,132.9375 115.2656,132.9375 Q115.6406,132.9375 115.875,133.2031 Q116.1094,133.4531 116.1094,134.0625 L116.1094,135.5156 Q116.1094,136.125 115.875,136.3906 Q115.6406,136.6563 115.2656,136.6563 Q114.9219,136.6563 114.7188,136.4531 Q114.5156,136.2656 114.4063,135.75 Q114.3594,135.3906 114.1719,135.2031 Q113.8438,134.8281 113.2344,134.6094 Q112.625,134.3906 112,134.3906 Q111.2344,134.3906 110.5938,134.7188 Q109.9688,135.0469 109.4688,135.7969 Q108.9844,136.5469 108.9844,137.5781 L108.9844,138.6719 Q108.9844,139.9063 109.875,140.7344 Q110.7656,141.5469 112.3594,141.5469 Q113.2969,141.5469 113.9531,141.2969 Q114.3438,141.1406 114.7656,140.7031 Q115.0313,140.4375 115.1719,140.3594 Q115.3281,140.2813 115.5313,140.2813 Q115.8594,140.2813 116.1094,140.5469 Q116.375,140.7969 116.375,141.1406 Q116.375,141.4844 116.0313,141.8906 Q115.5313,142.4688 114.7344,142.7969 Q113.6563,143.25 112.3594,143.25 Q110.8438,143.25 109.6406,142.625 Q108.6563,142.125 107.9688,141.0625 Q107.2813,139.9844 107.2813,138.7031 L107.2813,137.5469 Q107.2813,136.2188 107.8906,135.0781 Q108.5156,133.9219 109.6094,133.3125 Q110.7031,132.6875 111.9375,132.6875 Q112.6719,132.6875 113.3125,132.8594 Q113.9688,133.0156 114.5156,133.375 Z " fill="#000000"/><text fill="#000000" font-family="sans-serif" font-size="14" lengthAdjust="spacing" textLength="54" x="132.25" y="143.2285">Program</text><line style="stroke:#181818;stroke-width:0.5;" x1="61.5" x2="224.5" y1="153.5" y2="153.5"/><line style="stroke:#181818;stroke-width:0.5;" x1="61.5" x2="224.5" y1="161.5" y2="161.5"/><text fill="#000000" font-family="sans-serif" font-size="14" lengthAdjust="spacing" text-decoration="underline" textLength="153" x="66.5" y="180.0332">Main(args:string[]) : void</text></g><!--MD5=[d0074d293e9645ff4ed5f25f47c5773b]
class GameWindow--><g id="elem_GameWindow"><rect fill="#F1F1F1" height="48" id="GameWindow" rx="2.5" ry="2.5" style="stroke:#181818;stroke-width:0.5;" width="119" x="1494.5" y="130.5"/><ellipse cx="1509.5" cy="146.5" fill="#ADD1B2" rx="11" ry="11" style="stroke:#181818;stroke-width:1.0;"/><path d="M1512.2656,142.375 Q1512.4219,142.1563 1512.6094,142.0469 Q1512.7969,141.9375 1513.0156,141.9375 Q1513.3906,141.9375 1513.625,142.2031 Q1513.8594,142.4531 1513.8594,143.0625 L1513.8594,144.5156 Q1513.8594,145.125 1513.625,145.3906 Q1513.3906,145.6563 1513.0156,145.6563 Q1512.6719,145.6563 1512.4688,145.4531 Q1512.2656,145.2656 1512.1563,144.75 Q1512.1094,144.3906 1511.9219,144.2031 Q1511.5938,143.8281 1510.9844,143.6094 Q1510.375,143.3906 1509.75,143.3906 Q1508.9844,143.3906 1508.3438,143.7188 Q1507.7188,144.0469 1507.2188,144.7969 Q1506.7344,145.5469 1506.7344,146.5781 L1506.7344,147.6719 Q1506.7344,148.9063 1507.625,149.7344 Q1508.5156,150.5469 1510.1094,150.5469 Q1511.0469,150.5469 1511.7031,150.2969 Q1512.0938,150.1406 1512.5156,149.7031 Q1512.7813,149.4375 1512.9219,149.3594 Q1513.0781,149.2813 1513.2813,149.2813 Q1513.6094,149.2813 1513.8594,149.5469 Q1514.125,149.7969 1514.125,150.1406 Q1514.125,150.4844 1513.7813,150.8906 Q1513.2813,151.4688 1512.4844,151.7969 Q1511.4063,152.25 1510.1094,152.25 Q1508.5938,152.25 1507.3906,151.625 Q1506.4063,151.125 1505.7188,150.0625 Q1505.0313,148.9844 1505.0313,147.7031 L1505.0313,146.5469 Q1505.0313,145.2188 1505.6406,144.0781 Q1506.2656,142.9219 1507.3594,142.3125 Q1508.4531,141.6875 1509.6875,141.6875 Q1510.4219,141.6875 1511.0625,141.8594 Q1511.7188,142.0156 1512.2656,142.375 Z " fill="#000000"/><text fill="#000000" font-family="sans-serif" font-size="14" lengthAdjust="spacing" textLength="87" x="1523.5" y="152.2285">GameWindow</text><line style="stroke:#181818;stroke-width:0.5;" x1="1495.5" x2="1612.5" y1="162.5" y2="162.5"/><line style="stroke:#181818;stroke-width:0.5;" x1="1495.5" x2="1612.5" y1="170.5" y2="170.5"/></g><!--MD5=[ea10f8dc465baf5e542f54928f2443c8]
class BBox--><g id="elem_BBox"><rect codeLine="10" fill="#F1F1F1" height="276.9219" id="BBox" rx="2.5" ry="2.5" style="stroke:#181818;stroke-width:0.5;" width="665" x="1731.5" y="379.5"/><ellipse cx="2043.75" cy="395.5" fill="#ADD1B2" rx="11" ry="11" style="stroke:#181818;stroke-width:1.0;"/><path d="M2046.5156,391.375 Q2046.6719,391.1563 2046.8594,391.0469 Q2047.0469,390.9375 2047.2656,390.9375 Q2047.6406,390.9375 2047.875,391.2031 Q2048.1094,391.4531 2048.1094,392.0625 L2048.1094,393.5156 Q2048.1094,394.125 2047.875,394.3906 Q2047.6406,394.6563 2047.2656,394.6563 Q2046.9219,394.6563 2046.7188,394.4531 Q2046.5156,394.2656 2046.4063,393.75 Q2046.3594,393.3906 2046.1719,393.2031 Q2045.8438,392.8281 2045.2344,392.6094 Q2044.625,392.3906 2044,392.3906 Q2043.2344,392.3906 2042.5938,392.7188 Q2041.9688,393.0469 2041.4688,393.7969 Q2040.9844,394.5469 2040.9844,395.5781 L2040.9844,396.6719 Q2040.9844,397.9063 2041.875,398.7344 Q2042.7656,399.5469 2044.3594,399.5469 Q2045.2969,399.5469 2045.9531,399.2969 Q2046.3438,399.1406 2046.7656,398.7031 Q2047.0313,398.4375 2047.1719,398.3594 Q2047.3281,398.2813 2047.5313,398.2813 Q2047.8594,398.2813 2048.1094,398.5469 Q2048.375,398.7969 2048.375,399.1406 Q2048.375,399.4844 2048.0313,399.8906 Q2047.5313,400.4688 2046.7344,400.7969 Q2045.6563,401.25 2044.3594,401.25 Q2042.8438,401.25 2041.6406,400.625 Q2040.6563,400.125 2039.9688,399.0625 Q2039.2813,397.9844 2039.2813,396.7031 L2039.2813,395.5469 Q2039.2813,394.2188 2039.8906,393.0781 Q2040.5156,391.9219 2041.6094,391.3125 Q2042.7031,390.6875 2043.9375,390.6875 Q2044.6719,390.6875 2045.3125,390.8594 Q2045.9688,391.0156 2046.5156,391.375 Z " fill="#000000"/><text fill="#000000" font-family="sans-serif" font-size="14" lengthAdjust="spacing" textLength="32" x="2064.25" y="401.2285">BBox</text><line style="stroke:#181818;stroke-width:0.5;" x1="1732.5" x2="2395.5" y1="411.5" y2="411.5"/><ellipse cx="1742.5" cy="425.8047" fill="none" rx="3" ry="3" style="stroke:#038048;stroke-width:1.0;"/><text fill="#000000" font-family="sans-serif" font-size="14" lengthAdjust="spacing" textLength="176" x="1751.5" y="430.0332">obterMenorX : double «get»</text><ellipse cx="1742.5" cy="443.4141" fill="none" rx="3" ry="3" style="stroke:#038048;stroke-width:1.0;"/><text fill="#000000" font-family="sans-serif" font-size="14" lengthAdjust="spacing" textLength="177" x="1751.5" y="447.6426">obterMenorY : double «get»</text><ellipse cx="1742.5" cy="461.0234" fill="none" rx="3" ry="3" style="stroke:#038048;stroke-width:1.0;"/><text fill="#000000" font-family="sans-serif" font-size="14" lengthAdjust="spacing" textLength="176" x="1751.5" y="465.252">obterMenorZ : double «get»</text><ellipse cx="1742.5" cy="478.6328" fill="none" rx="3" ry="3" style="stroke:#038048;stroke-width:1.0;"/><text fill="#000000" font-family="sans-serif" font-size="14" lengthAdjust="spacing" textLength="171" x="1751.5" y="482.8613">obterMaiorX : double «get»</text><ellipse cx="1742.5" cy="496.2422" fill="none" rx="3" ry="3" style="stroke:#038048;stroke-width:1.0;"/><text fill="#000000" font-family="sans-serif" font-size="14" lengthAdjust="spacing" textLength="172" x="1751.5" y="500.4707">obterMaiorY : double «get»</text><ellipse cx="1742.5" cy="513.8516" fill="none" rx="3" ry="3" style="stroke:#038048;stroke-width:1.0;"/><text fill="#000000" font-family="sans-serif" font-size="14" lengthAdjust="spacing" textLength="171" x="1751.5" y="518.0801">obterMaiorZ : double «get»</text><line style="stroke:#181818;stroke-width:0.5;" x1="1732.5" x2="2395.5" y1="525.1563" y2="525.1563"/><ellipse cx="1742.5" cy="539.4609" fill="#84BE84" rx="3" ry="3" style="stroke:#038048;stroke-width:1.0;"/><text fill="#000000" font-family="sans-serif" font-size="14" lengthAdjust="spacing" textLength="639" x="1751.5" y="543.6895">BBox(menorX:double, menorY:double, menorZ:double, maiorX:double, maiorY:double, maiorZ:double)</text><ellipse cx="1742.5" cy="557.0703" fill="#84BE84" rx="3" ry="3" style="stroke:#038048;stroke-width:1.0;"/><text fill="#000000" font-family="sans-serif" font-size="14" lengthAdjust="spacing" textLength="172" x="1751.5" y="561.2988">Atribuir(pto:Ponto4D) : void</text><ellipse cx="1742.5" cy="574.6797" fill="#84BE84" rx="3" ry="3" style="stroke:#038048;stroke-width:1.0;"/><text fill="#000000" font-family="sans-serif" font-size="14" lengthAdjust="spacing" textLength="181" x="1751.5" y="578.9082">Atualizar(pto:Ponto4D) : void</text><ellipse cx="1742.5" cy="592.2891" fill="#84BE84" rx="3" ry="3" style="stroke:#038048;stroke-width:1.0;"/><text fill="#000000" font-family="sans-serif" font-size="14" lengthAdjust="spacing" textLength="278" x="1751.5" y="596.5176">Atualizar(x:double, y:double, z:double) : void</text><ellipse cx="1742.5" cy="609.8984" fill="#84BE84" rx="3" ry="3" style="stroke:#038048;stroke-width:1.0;"/><text fill="#000000" font-family="sans-serif" font-size="14" lengthAdjust="spacing" textLength="155" x="1751.5" y="614.127">ProcessarCentro() : void</text><ellipse cx="1742.5" cy="627.5078" fill="#84BE84" rx="3" ry="3" style="stroke:#038048;stroke-width:1.0;"/><text fill="#000000" font-family="sans-serif" font-size="14" lengthAdjust="spacing" textLength="110" x="1751.5" y="631.7363">Desenhar() : void</text><ellipse cx="1742.5" cy="645.1172" fill="#84BE84" rx="3" ry="3" style="stroke:#038048;stroke-width:1.0;"/><text fill="#000000" font-family="sans-serif" font-size="14" lengthAdjust="spacing" textLength="183" x="1751.5" y="649.3457">«override» ToString() : string</text></g><!--MD5=[ef5ff341dffd6737742a54781c8b5648]
class Ponto4D--><g id="elem_Ponto4D"><rect codeLine="119" fill="#F1F1F1" height="171.2656" id="Ponto4D" rx="2.5" ry="2.5" style="stroke:#181818;stroke-width:0.5;" width="331" x="1898.5" y="734"/><ellipse cx="2032.25" cy="750" fill="#ADD1B2" rx="11" ry="11" style="stroke:#181818;stroke-width:1.0;"/><path d="M2035.0156,745.875 Q2035.1719,745.6563 2035.3594,745.5469 Q2035.5469,745.4375 2035.7656,745.4375 Q2036.1406,745.4375 2036.375,745.7031 Q2036.6094,745.9531 2036.6094,746.5625 L2036.6094,748.0156 Q2036.6094,748.625 2036.375,748.8906 Q2036.1406,749.1563 2035.7656,749.1563 Q2035.4219,749.1563 2035.2188,748.9531 Q2035.0156,748.7656 2034.9063,748.25 Q2034.8594,747.8906 2034.6719,747.7031 Q2034.3438,747.3281 2033.7344,747.1094 Q2033.125,746.8906 2032.5,746.8906 Q2031.7344,746.8906 2031.0938,747.2188 Q2030.4688,747.5469 2029.9688,748.2969 Q2029.4844,749.0469 2029.4844,750.0781 L2029.4844,751.1719 Q2029.4844,752.4063 2030.375,753.2344 Q2031.2656,754.0469 2032.8594,754.0469 Q2033.7969,754.0469 2034.4531,753.7969 Q2034.8438,753.6406 2035.2656,753.2031 Q2035.5313,752.9375 2035.6719,752.8594 Q2035.8281,752.7813 2036.0313,752.7813 Q2036.3594,752.7813 2036.6094,753.0469 Q2036.875,753.2969 2036.875,753.6406 Q2036.875,753.9844 2036.5313,754.3906 Q2036.0313,754.9688 2035.2344,755.2969 Q2034.1563,755.75 2032.8594,755.75 Q2031.3438,755.75 2030.1406,755.125 Q2029.1563,754.625 2028.4688,753.5625 Q2027.7813,752.4844 2027.7813,751.2031 L2027.7813,750.0469 Q2027.7813,748.7188 2028.3906,747.5781 Q2029.0156,746.4219 2030.1094,745.8125 Q2031.2031,745.1875 2032.4375,745.1875 Q2033.1719,745.1875 2033.8125,745.3594 Q2034.4688,745.5156 2035.0156,745.875 Z " fill="#000000"/><text fill="#000000" font-family="sans-serif" font-size="14" lengthAdjust="spacing" textLength="55" x="2052.75" y="755.7285">Ponto4D</text><line style="stroke:#181818;stroke-width:0.5;" x1="1899.5" x2="2228.5" y1="766" y2="766"/><ellipse cx="1909.5" cy="780.3047" fill="none" rx="3" ry="3" style="stroke:#038048;stroke-width:1.0;"/><text fill="#000000" font-family="sans-serif" font-size="14" lengthAdjust="spacing" textLength="142" x="1918.5" y="784.5332">X : double «get» «set»</text><ellipse cx="1909.5" cy="797.9141" fill="none" rx="3" ry="3" style="stroke:#038048;stroke-width:1.0;"/><text fill="#000000" font-family="sans-serif" font-size="14" lengthAdjust="spacing" textLength="143" x="1918.5" y="802.1426">Y : double «get» «set»</text><ellipse cx="1909.5" cy="815.5234" fill="none" rx="3" ry="3" style="stroke:#038048;stroke-width:1.0;"/><text fill="#000000" font-family="sans-serif" font-size="14" lengthAdjust="spacing" textLength="142" x="1918.5" y="819.752">Z : double «get» «set»</text><ellipse cx="1909.5" cy="833.1328" fill="none" rx="3" ry="3" style="stroke:#038048;stroke-width:1.0;"/><text fill="#000000" font-family="sans-serif" font-size="14" lengthAdjust="spacing" textLength="108" x="1918.5" y="837.3613">W : double «get»</text><line style="stroke:#181818;stroke-width:0.5;" x1="1899.5" x2="2228.5" y1="844.4375" y2="844.4375"/><ellipse cx="1909.5" cy="858.7422" fill="#84BE84" rx="3" ry="3" style="stroke:#038048;stroke-width:1.0;"/><text fill="#000000" font-family="sans-serif" font-size="14" lengthAdjust="spacing" textLength="305" x="1918.5" y="862.9707">Ponto4D(x:double, y:double, z:double, w:double)</text><ellipse cx="1909.5" cy="876.3516" fill="#84BE84" rx="3" ry="3" style="stroke:#038048;stroke-width:1.0;"/><text fill="#000000" font-family="sans-serif" font-size="14" lengthAdjust="spacing" textLength="144" x="1918.5" y="880.5801">Ponto4D(pto:Ponto4D)</text><ellipse cx="1909.5" cy="893.9609" fill="#84BE84" rx="3" ry="3" style="stroke:#038048;stroke-width:1.0;"/><text fill="#000000" font-family="sans-serif" font-size="14" lengthAdjust="spacing" textLength="183" x="1918.5" y="898.1895">«override» ToString() : string</text></g><!--MD5=[a7a8f22eafb289696c295eb36d2b4bda]
class CameraOrtho--><g id="elem_CameraOrtho"><rect codeLine="26" fill="#F1F1F1" height="294.5313" id="CameraOrtho" rx="2.5" ry="2.5" style="stroke:#181818;stroke-width:0.5;" width="623" x="260.5" y="7"/><ellipse cx="524.75" cy="23" fill="#ADD1B2" rx="11" ry="11" style="stroke:#181818;stroke-width:1.0;"/><path d="M527.5156,18.875 Q527.6719,18.6563 527.8594,18.5469 Q528.0469,18.4375 528.2656,18.4375 Q528.6406,18.4375 528.875,18.7031 Q529.1094,18.9531 529.1094,19.5625 L529.1094,21.0156 Q529.1094,21.625 528.875,21.8906 Q528.6406,22.1563 528.2656,22.1563 Q527.9219,22.1563 527.7188,21.9531 Q527.5156,21.7656 527.4063,21.25 Q527.3594,20.8906 527.1719,20.7031 Q526.8438,20.3281 526.2344,20.1094 Q525.625,19.8906 525,19.8906 Q524.2344,19.8906 523.5938,20.2188 Q522.9688,20.5469 522.4688,21.2969 Q521.9844,22.0469 521.9844,23.0781 L521.9844,24.1719 Q521.9844,25.4063 522.875,26.2344 Q523.7656,27.0469 525.3594,27.0469 Q526.2969,27.0469 526.9531,26.7969 Q527.3438,26.6406 527.7656,26.2031 Q528.0313,25.9375 528.1719,25.8594 Q528.3281,25.7813 528.5313,25.7813 Q528.8594,25.7813 529.1094,26.0469 Q529.375,26.2969 529.375,26.6406 Q529.375,26.9844 529.0313,27.3906 Q528.5313,27.9688 527.7344,28.2969 Q526.6563,28.75 525.3594,28.75 Q523.8438,28.75 522.6406,28.125 Q521.6563,27.625 520.9688,26.5625 Q520.2813,25.4844 520.2813,24.2031 L520.2813,23.0469 Q520.2813,21.7188 520.8906,20.5781 Q521.5156,19.4219 522.6094,18.8125 Q523.7031,18.1875 524.9375,18.1875 Q525.6719,18.1875 526.3125,18.3594 Q526.9688,18.5156 527.5156,18.875 Z " fill="#000000"/><text fill="#000000" font-family="sans-serif" font-size="14" lengthAdjust="spacing" textLength="86" x="545.25" y="28.7285">CameraOrtho</text><line style="stroke:#181818;stroke-width:0.5;" x1="261.5" x2="882.5" y1="39" y2="39"/><ellipse cx="271.5" cy="53.3047" fill="none" rx="3" ry="3" style="stroke:#038048;stroke-width:1.0;"/><text fill="#000000" font-family="sans-serif" font-size="14" lengthAdjust="spacing" textLength="162" x="280.5" y="57.5332">xmin : double «get» «set»</text><ellipse cx="271.5" cy="70.9141" fill="none" rx="3" ry="3" style="stroke:#038048;stroke-width:1.0;"/><text fill="#000000" font-family="sans-serif" font-size="14" lengthAdjust="spacing" textLength="165" x="280.5" y="75.1426">xmax : double «get» «set»</text><ellipse cx="271.5" cy="88.5234" fill="none" rx="3" ry="3" style="stroke:#038048;stroke-width:1.0;"/><text fill="#000000" font-family="sans-serif" font-size="14" lengthAdjust="spacing" textLength="163" x="280.5" y="92.752">ymin : double «get» «set»</text><ellipse cx="271.5" cy="106.1328" fill="none" rx="3" ry="3" style="stroke:#038048;stroke-width:1.0;"/><text fill="#000000" font-family="sans-serif" font-size="14" lengthAdjust="spacing" textLength="166" x="280.5" y="110.3613">ymax : double «get» «set»</text><ellipse cx="271.5" cy="123.7422" fill="none" rx="3" ry="3" style="stroke:#038048;stroke-width:1.0;"/><text fill="#000000" font-family="sans-serif" font-size="14" lengthAdjust="spacing" textLength="162" x="280.5" y="127.9707">zmin : double «get» «set»</text><ellipse cx="271.5" cy="141.3516" fill="none" rx="3" ry="3" style="stroke:#038048;stroke-width:1.0;"/><text fill="#000000" font-family="sans-serif" font-size="14" lengthAdjust="spacing" textLength="165" x="280.5" y="145.5801">zmax : double «get» «set»</text><line style="stroke:#181818;stroke-width:0.5;" x1="261.5" x2="882.5" y1="152.6563" y2="152.6563"/><ellipse cx="271.5" cy="166.9609" fill="#84BE84" rx="3" ry="3" style="stroke:#038048;stroke-width:1.0;"/><text fill="#000000" font-family="sans-serif" font-size="14" lengthAdjust="spacing" textLength="597" x="280.5" y="171.1895">CameraOrtho(xMin:double, xMax:double, yMin:double, yMax:double, zMin:double, zMax:double)</text><ellipse cx="271.5" cy="184.5703" fill="#84BE84" rx="3" ry="3" style="stroke:#038048;stroke-width:1.0;"/><text fill="#000000" font-family="sans-serif" font-size="14" lengthAdjust="spacing" textLength="134" x="280.5" y="188.7988">PanEsquerda() : void</text><ellipse cx="271.5" cy="202.1797" fill="#84BE84" rx="3" ry="3" style="stroke:#038048;stroke-width:1.0;"/><text fill="#000000" font-family="sans-serif" font-size="14" lengthAdjust="spacing" textLength="114" x="280.5" y="206.4082">PanDireita() : void</text><ellipse cx="271.5" cy="219.7891" fill="#84BE84" rx="3" ry="3" style="stroke:#038048;stroke-width:1.0;"/><text fill="#000000" font-family="sans-serif" font-size="14" lengthAdjust="spacing" textLength="105" x="280.5" y="224.0176">PanCima() : void</text><ellipse cx="271.5" cy="237.3984" fill="#84BE84" rx="3" ry="3" style="stroke:#038048;stroke-width:1.0;"/><text fill="#000000" font-family="sans-serif" font-size="14" lengthAdjust="spacing" textLength="107" x="280.5" y="241.627">PanBaixo() : void</text><ellipse cx="271.5" cy="255.0078" fill="#84BE84" rx="3" ry="3" style="stroke:#038048;stroke-width:1.0;"/><text fill="#000000" font-family="sans-serif" font-size="14" lengthAdjust="spacing" textLength="94" x="280.5" y="259.2363">ZoomIn() : void</text><ellipse cx="271.5" cy="272.6172" fill="#84BE84" rx="3" ry="3" style="stroke:#038048;stroke-width:1.0;"/><text fill="#000000" font-family="sans-serif" font-size="14" lengthAdjust="spacing" textLength="106" x="280.5" y="276.8457">ZoomOut() : void</text><ellipse cx="271.5" cy="290.2266" fill="#84BE84" rx="3" ry="3" style="stroke:#038048;stroke-width:1.0;"/><text fill="#000000" font-family="sans-serif" font-size="14" lengthAdjust="spacing" textLength="183" x="280.5" y="294.4551">«override» ToString() : string</text></g><!--MD5=[c3851e40b8ed2f68ee08d490e0f0cd81]
class CameraPerspective--><g id="elem_CameraPerspective"><rect codeLine="42" fill="#F1F1F1" height="153.6563" id="CameraPerspective" rx="2.5" ry="2.5" style="stroke:#181818;stroke-width:0.5;" width="422" x="3255" y="77.5"/><ellipse cx="3399.75" cy="93.5" fill="#ADD1B2" rx="11" ry="11" style="stroke:#181818;stroke-width:1.0;"/><path d="M3402.5156,89.375 Q3402.6719,89.1563 3402.8594,89.0469 Q3403.0469,88.9375 3403.2656,88.9375 Q3403.6406,88.9375 3403.875,89.2031 Q3404.1094,89.4531 3404.1094,90.0625 L3404.1094,91.5156 Q3404.1094,92.125 3403.875,92.3906 Q3403.6406,92.6563 3403.2656,92.6563 Q3402.9219,92.6563 3402.7188,92.4531 Q3402.5156,92.2656 3402.4063,91.75 Q3402.3594,91.3906 3402.1719,91.2031 Q3401.8438,90.8281 3401.2344,90.6094 Q3400.625,90.3906 3400,90.3906 Q3399.2344,90.3906 3398.5938,90.7188 Q3397.9688,91.0469 3397.4688,91.7969 Q3396.9844,92.5469 3396.9844,93.5781 L3396.9844,94.6719 Q3396.9844,95.9063 3397.875,96.7344 Q3398.7656,97.5469 3400.3594,97.5469 Q3401.2969,97.5469 3401.9531,97.2969 Q3402.3438,97.1406 3402.7656,96.7031 Q3403.0313,96.4375 3403.1719,96.3594 Q3403.3281,96.2813 3403.5313,96.2813 Q3403.8594,96.2813 3404.1094,96.5469 Q3404.375,96.7969 3404.375,97.1406 Q3404.375,97.4844 3404.0313,97.8906 Q3403.5313,98.4688 3402.7344,98.7969 Q3401.6563,99.25 3400.3594,99.25 Q3398.8438,99.25 3397.6406,98.625 Q3396.6563,98.125 3395.9688,97.0625 Q3395.2813,95.9844 3395.2813,94.7031 L3395.2813,93.5469 Q3395.2813,92.2188 3395.8906,91.0781 Q3396.5156,89.9219 3397.6094,89.3125 Q3398.7031,88.6875 3399.9375,88.6875 Q3400.6719,88.6875 3401.3125,88.8594 Q3401.9688,89.0156 3402.5156,89.375 Z " fill="#000000"/><text fill="#000000" font-family="sans-serif" font-size="14" lengthAdjust="spacing" textLength="124" x="3420.25" y="99.2285">CameraPerspective</text><line style="stroke:#181818;stroke-width:0.5;" x1="3256" x2="3676" y1="109.5" y2="109.5"/><ellipse cx="3266" cy="123.8047" fill="none" rx="3" ry="3" style="stroke:#038048;stroke-width:1.0;"/><text fill="#000000" font-family="sans-serif" font-size="14" lengthAdjust="spacing" textLength="149" x="3275" y="128.0332">Fovy : float «get» «set»</text><ellipse cx="3266" cy="141.4141" fill="none" rx="3" ry="3" style="stroke:#038048;stroke-width:1.0;"/><text fill="#000000" font-family="sans-serif" font-size="14" lengthAdjust="spacing" textLength="161" x="3275" y="145.6426">Aspect : float «get» «set»</text><ellipse cx="3266" cy="159.0234" fill="none" rx="3" ry="3" style="stroke:#038048;stroke-width:1.0;"/><text fill="#000000" font-family="sans-serif" font-size="14" lengthAdjust="spacing" textLength="148" x="3275" y="163.252">Near : float «get» «set»</text><ellipse cx="3266" cy="176.6328" fill="none" rx="3" ry="3" style="stroke:#038048;stroke-width:1.0;"/><text fill="#000000" font-family="sans-serif" font-size="14" lengthAdjust="spacing" textLength="140" x="3275" y="180.8613">Far : float «get» «set»</text><line style="stroke:#181818;stroke-width:0.5;" x1="3256" x2="3676" y1="187.9375" y2="187.9375"/><ellipse cx="3266" cy="202.2422" fill="#84BE84" rx="3" ry="3" style="stroke:#038048;stroke-width:1.0;"/><text fill="#000000" font-family="sans-serif" font-size="14" lengthAdjust="spacing" textLength="396" x="3275" y="206.4707">CameraPerspective(fovy:float, aspect:float, near:float, far:float)</text><ellipse cx="3266" cy="219.8516" fill="#84BE84" rx="3" ry="3" style="stroke:#038048;stroke-width:1.0;"/><text fill="#000000" font-family="sans-serif" font-size="14" lengthAdjust="spacing" textLength="183" x="3275" y="224.0801">«override» ToString() : string</text></g><!--MD5=[65d619c042c23702cef2ca07d67b1cf6]
class Vector3--><g id="elem_Vector3"><rect fill="#F1F1F1" height="48" id="Vector3" rx="2.5" ry="2.5" style="stroke:#181818;stroke-width:0.5;" width="81" x="3425.5" y="494"/><ellipse cx="3440.5" cy="510" fill="#ADD1B2" rx="11" ry="11" style="stroke:#181818;stroke-width:1.0;"/><path d="M3443.2656,505.875 Q3443.4219,505.6563 3443.6094,505.5469 Q3443.7969,505.4375 3444.0156,505.4375 Q3444.3906,505.4375 3444.625,505.7031 Q3444.8594,505.9531 3444.8594,506.5625 L3444.8594,508.0156 Q3444.8594,508.625 3444.625,508.8906 Q3444.3906,509.1563 3444.0156,509.1563 Q3443.6719,509.1563 3443.4688,508.9531 Q3443.2656,508.7656 3443.1563,508.25 Q3443.1094,507.8906 3442.9219,507.7031 Q3442.5938,507.3281 3441.9844,507.1094 Q3441.375,506.8906 3440.75,506.8906 Q3439.9844,506.8906 3439.3438,507.2188 Q3438.7188,507.5469 3438.2188,508.2969 Q3437.7344,509.0469 3437.7344,510.0781 L3437.7344,511.1719 Q3437.7344,512.4063 3438.625,513.2344 Q3439.5156,514.0469 3441.1094,514.0469 Q3442.0469,514.0469 3442.7031,513.7969 Q3443.0938,513.6406 3443.5156,513.2031 Q3443.7813,512.9375 3443.9219,512.8594 Q3444.0781,512.7813 3444.2813,512.7813 Q3444.6094,512.7813 3444.8594,513.0469 Q3445.125,513.2969 3445.125,513.6406 Q3445.125,513.9844 3444.7813,514.3906 Q3444.2813,514.9688 3443.4844,515.2969 Q3442.4063,515.75 3441.1094,515.75 Q3439.5938,515.75 3438.3906,515.125 Q3437.4063,514.625 3436.7188,513.5625 Q3436.0313,512.4844 3436.0313,511.2031 L3436.0313,510.0469 Q3436.0313,508.7188 3436.6406,507.5781 Q3437.2656,506.4219 3438.3594,505.8125 Q3439.4531,505.1875 3440.6875,505.1875 Q3441.4219,505.1875 3442.0625,505.3594 Q3442.7188,505.5156 3443.2656,505.875 Z " fill="#000000"/><text fill="#000000" font-family="sans-serif" font-size="14" lengthAdjust="spacing" textLength="49" x="3454.5" y="515.7285">Vector3</text><line style="stroke:#181818;stroke-width:0.5;" x1="3426.5" x2="3505.5" y1="526" y2="526"/><line style="stroke:#181818;stroke-width:0.5;" x1="3426.5" x2="3505.5" y1="534" y2="534"/></g><!--MD5=[9ac43fafcd0ede942dc8e681a30a1b52]
class Cor--><g id="elem_Cor"><rect codeLine="53" fill="#F1F1F1" height="153.6563" id="Cor" rx="2.5" ry="2.5" style="stroke:#181818;stroke-width:0.5;" width="326" x="2432" y="441"/><ellipse cx="2579.25" cy="457" fill="#ADD1B2" rx="11" ry="11" style="stroke:#181818;stroke-width:1.0;"/><path d="M2582.0156,452.875 Q2582.1719,452.6563 2582.3594,452.5469 Q2582.5469,452.4375 2582.7656,452.4375 Q2583.1406,452.4375 2583.375,452.7031 Q2583.6094,452.9531 2583.6094,453.5625 L2583.6094,455.0156 Q2583.6094,455.625 2583.375,455.8906 Q2583.1406,456.1563 2582.7656,456.1563 Q2582.4219,456.1563 2582.2188,455.9531 Q2582.0156,455.7656 2581.9063,455.25 Q2581.8594,454.8906 2581.6719,454.7031 Q2581.3438,454.3281 2580.7344,454.1094 Q2580.125,453.8906 2579.5,453.8906 Q2578.7344,453.8906 2578.0938,454.2188 Q2577.4688,454.5469 2576.9688,455.2969 Q2576.4844,456.0469 2576.4844,457.0781 L2576.4844,458.1719 Q2576.4844,459.4063 2577.375,460.2344 Q2578.2656,461.0469 2579.8594,461.0469 Q2580.7969,461.0469 2581.4531,460.7969 Q2581.8438,460.6406 2582.2656,460.2031 Q2582.5313,459.9375 2582.6719,459.8594 Q2582.8281,459.7813 2583.0313,459.7813 Q2583.3594,459.7813 2583.6094,460.0469 Q2583.875,460.2969 2583.875,460.6406 Q2583.875,460.9844 2583.5313,461.3906 Q2583.0313,461.9688 2582.2344,462.2969 Q2581.1563,462.75 2579.8594,462.75 Q2578.3438,462.75 2577.1406,462.125 Q2576.1563,461.625 2575.4688,460.5625 Q2574.7813,459.4844 2574.7813,458.2031 L2574.7813,457.0469 Q2574.7813,455.7188 2575.3906,454.5781 Q2576.0156,453.4219 2577.1094,452.8125 Q2578.2031,452.1875 2579.4375,452.1875 Q2580.1719,452.1875 2580.8125,452.3594 Q2581.4688,452.5156 2582.0156,452.875 Z " fill="#000000"/><text fill="#000000" font-family="sans-serif" font-size="14" lengthAdjust="spacing" textLength="23" x="2599.75" y="462.7285">Cor</text><line style="stroke:#181818;stroke-width:0.5;" x1="2433" x2="2757" y1="473" y2="473"/><ellipse cx="2443" cy="487.3047" fill="none" rx="3" ry="3" style="stroke:#038048;stroke-width:1.0;"/><text fill="#000000" font-family="sans-serif" font-size="14" lengthAdjust="spacing" textLength="151" x="2452" y="491.5332">CorR : byte «get» «set»</text><ellipse cx="2443" cy="504.9141" fill="none" rx="3" ry="3" style="stroke:#038048;stroke-width:1.0;"/><text fill="#000000" font-family="sans-serif" font-size="14" lengthAdjust="spacing" textLength="152" x="2452" y="509.1426">CorG : byte «get» «set»</text><ellipse cx="2443" cy="522.5234" fill="none" rx="3" ry="3" style="stroke:#038048;stroke-width:1.0;"/><text fill="#000000" font-family="sans-serif" font-size="14" lengthAdjust="spacing" textLength="150" x="2452" y="526.752">CorB : byte «get» «set»</text><ellipse cx="2443" cy="540.1328" fill="none" rx="3" ry="3" style="stroke:#038048;stroke-width:1.0;"/><text fill="#000000" font-family="sans-serif" font-size="14" lengthAdjust="spacing" textLength="150" x="2452" y="544.3613">CorA : byte «get» «set»</text><line style="stroke:#181818;stroke-width:0.5;" x1="2433" x2="2757" y1="551.4375" y2="551.4375"/><ellipse cx="2443" cy="565.7422" fill="#84BE84" rx="3" ry="3" style="stroke:#038048;stroke-width:1.0;"/><text fill="#000000" font-family="sans-serif" font-size="14" lengthAdjust="spacing" textLength="300" x="2452" y="569.9707">Cor(corR:byte, corG:byte, corB:byte, corA:byte)</text><ellipse cx="2443" cy="583.3516" fill="#84BE84" rx="3" ry="3" style="stroke:#038048;stroke-width:1.0;"/><text fill="#000000" font-family="sans-serif" font-size="14" lengthAdjust="spacing" textLength="183" x="2452" y="587.5801">«override» ToString() : string</text></g><!--MD5=[3051a6a8f877a755a60c7cfd1e6f410a]
class Objeto--><g id="elem_Objeto"><rect codeLine="61" fill="#F1F1F1" height="153.6563" id="Objeto" rx="2.5" ry="2.5" style="stroke:#181818;stroke-width:0.5;" width="304" x="2571" y="77.5"/><ellipse cx="2697.75" cy="93.5" fill="#A9DCDF" rx="11" ry="11" style="stroke:#181818;stroke-width:1.0;"/><path d="M2699.9375,95.2656 L2695.7969,95.2656 L2695.375,96.2969 L2695.7969,96.2969 Q2696.4063,96.2969 2696.6719,96.5313 Q2696.9375,96.7656 2696.9375,97.1563 Q2696.9375,97.5313 2696.6719,97.7656 Q2696.4063,98 2695.7969,98 L2693.5,98 Q2692.8906,98 2692.6406,97.7656 Q2692.375,97.5313 2692.375,97.1406 Q2692.375,96.7656 2692.6563,96.5313 Q2692.9219,96.2813 2693.5469,96.2969 L2696.2188,89.6406 L2695.1094,89.6406 Q2694.5,89.6406 2694.2344,89.4063 Q2693.9688,89.1719 2693.9688,88.7813 Q2693.9688,88.4063 2694.2344,88.1719 Q2694.5,87.9375 2695.1094,87.9375 L2698.7813,87.9375 L2702.1719,96.2969 Q2702.7656,96.2969 2702.9531,96.4375 Q2703.3438,96.7031 2703.3438,97.1563 Q2703.3438,97.5313 2703.0781,97.7656 Q2702.8281,98 2702.2188,98 L2699.9219,98 Q2699.3125,98 2699.0469,97.7656 Q2698.7813,97.5313 2698.7813,97.1406 Q2698.7813,96.7656 2699.0469,96.5313 Q2699.3125,96.2969 2699.9219,96.2969 L2700.3438,96.2969 L2699.9375,95.2656 Z M2699.2188,93.5625 L2697.8594,90.1875 L2696.4844,93.5625 L2699.2188,93.5625 Z " fill="#000000"/><text fill="#000000" font-family="sans-serif" font-size="14" font-style="italic" lengthAdjust="spacing" textLength="42" x="2718.25" y="99.2285">Objeto</text><line style="stroke:#181818;stroke-width:0.5;" x1="2572" x2="2874" y1="109.5" y2="109.5"/><ellipse cx="2582" cy="123.8047" fill="none" rx="3" ry="3" style="stroke:#038048;stroke-width:1.0;"/><text fill="#000000" font-family="sans-serif" font-size="14" lengthAdjust="spacing" textLength="231" x="2591" y="128.0332">PrimitivaTamanho : float «get» «set»</text><line style="stroke:#181818;stroke-width:0.5;" x1="2572" x2="2874" y1="135.1094" y2="135.1094"/><ellipse cx="2582" cy="149.4141" fill="#84BE84" rx="3" ry="3" style="stroke:#038048;stroke-width:1.0;"/><text fill="#000000" font-family="sans-serif" font-size="14" lengthAdjust="spacing" textLength="222" x="2591" y="153.6426">Objeto(rotulo:string, paiRef:Objeto)</text><ellipse cx="2582" cy="167.0234" fill="#84BE84" rx="3" ry="3" style="stroke:#038048;stroke-width:1.0;"/><text fill="#000000" font-family="sans-serif" font-size="14" lengthAdjust="spacing" textLength="110" x="2591" y="171.252">Desenhar() : void</text><ellipse cx="2582" cy="184.6328" fill="#84BE84" rx="3" ry="3" style="stroke:#038048;stroke-width:1.0;"/><text fill="#000000" font-family="sans-serif" font-size="14" lengthAdjust="spacing" textLength="210" x="2591" y="188.8613">FilhoAdicionar(filho:Objeto) : void</text><ellipse cx="2582" cy="202.2422" fill="#84BE84" rx="3" ry="3" style="stroke:#038048;stroke-width:1.0;"/><text fill="#000000" font-family="sans-serif" font-size="14" lengthAdjust="spacing" textLength="208" x="2591" y="206.4707">FilhoRemover(filho:Objeto) : void</text><ellipse cx="2582" cy="219.8516" fill="#84BE84" rx="3" ry="3" style="stroke:#038048;stroke-width:1.0;"/><text fill="#000000" font-family="sans-serif" font-size="14" lengthAdjust="spacing" textLength="278" x="2591" y="224.0801">VerificaEstaDentroBBox(pto:Ponto4D) : bool</text></g><!--MD5=[38e8fced9e943fac45fdba9ac5db991f]
class PrimitiveType--><g id="elem_PrimitiveType"><rect fill="#F1F1F1" height="48" id="PrimitiveType" rx="2.5" ry="2.5" style="stroke:#181818;stroke-width:0.5;" width="117" x="2793.5" y="494"/><ellipse cx="2808.5" cy="510" fill="#ADD1B2" rx="11" ry="11" style="stroke:#181818;stroke-width:1.0;"/><path d="M2811.2656,505.875 Q2811.4219,505.6563 2811.6094,505.5469 Q2811.7969,505.4375 2812.0156,505.4375 Q2812.3906,505.4375 2812.625,505.7031 Q2812.8594,505.9531 2812.8594,506.5625 L2812.8594,508.0156 Q2812.8594,508.625 2812.625,508.8906 Q2812.3906,509.1563 2812.0156,509.1563 Q2811.6719,509.1563 2811.4688,508.9531 Q2811.2656,508.7656 2811.1563,508.25 Q2811.1094,507.8906 2810.9219,507.7031 Q2810.5938,507.3281 2809.9844,507.1094 Q2809.375,506.8906 2808.75,506.8906 Q2807.9844,506.8906 2807.3438,507.2188 Q2806.7188,507.5469 2806.2188,508.2969 Q2805.7344,509.0469 2805.7344,510.0781 L2805.7344,511.1719 Q2805.7344,512.4063 2806.625,513.2344 Q2807.5156,514.0469 2809.1094,514.0469 Q2810.0469,514.0469 2810.7031,513.7969 Q2811.0938,513.6406 2811.5156,513.2031 Q2811.7813,512.9375 2811.9219,512.8594 Q2812.0781,512.7813 2812.2813,512.7813 Q2812.6094,512.7813 2812.8594,513.0469 Q2813.125,513.2969 2813.125,513.6406 Q2813.125,513.9844 2812.7813,514.3906 Q2812.2813,514.9688 2811.4844,515.2969 Q2810.4063,515.75 2809.1094,515.75 Q2807.5938,515.75 2806.3906,515.125 Q2805.4063,514.625 2804.7188,513.5625 Q2804.0313,512.4844 2804.0313,511.2031 L2804.0313,510.0469 Q2804.0313,508.7188 2804.6406,507.5781 Q2805.2656,506.4219 2806.3594,505.8125 Q2807.4531,505.1875 2808.6875,505.1875 Q2809.4219,505.1875 2810.0625,505.3594 Q2810.7188,505.5156 2811.2656,505.875 Z " fill="#000000"/><text fill="#000000" font-family="sans-serif" font-size="14" lengthAdjust="spacing" textLength="85" x="2822.5" y="515.7285">PrimitiveType</text><line style="stroke:#181818;stroke-width:0.5;" x1="2794.5" x2="2909.5" y1="526" y2="526"/><line style="stroke:#181818;stroke-width:0.5;" x1="2794.5" x2="2909.5" y1="534" y2="534"/></g><!--MD5=[8b9e0d00865063ef789ad294aa32e6ea]
class ObjetoGeometria--><g id="elem_ObjetoGeometria"><rect codeLine="72" fill="#F1F1F1" height="259.3125" id="ObjetoGeometria" rx="2.5" ry="2.5" style="stroke:#181818;stroke-width:0.5;" width="445" x="2945.5" y="388.5"/><ellipse cx="3109.75" cy="404.5" fill="#A9DCDF" rx="11" ry="11" style="stroke:#181818;stroke-width:1.0;"/><path d="M3111.9375,406.2656 L3107.7969,406.2656 L3107.375,407.2969 L3107.7969,407.2969 Q3108.4063,407.2969 3108.6719,407.5313 Q3108.9375,407.7656 3108.9375,408.1563 Q3108.9375,408.5313 3108.6719,408.7656 Q3108.4063,409 3107.7969,409 L3105.5,409 Q3104.8906,409 3104.6406,408.7656 Q3104.375,408.5313 3104.375,408.1406 Q3104.375,407.7656 3104.6563,407.5313 Q3104.9219,407.2813 3105.5469,407.2969 L3108.2188,400.6406 L3107.1094,400.6406 Q3106.5,400.6406 3106.2344,400.4063 Q3105.9688,400.1719 3105.9688,399.7813 Q3105.9688,399.4063 3106.2344,399.1719 Q3106.5,398.9375 3107.1094,398.9375 L3110.7813,398.9375 L3114.1719,407.2969 Q3114.7656,407.2969 3114.9531,407.4375 Q3115.3438,407.7031 3115.3438,408.1563 Q3115.3438,408.5313 3115.0781,408.7656 Q3114.8281,409 3114.2188,409 L3111.9219,409 Q3111.3125,409 3111.0469,408.7656 Q3110.7813,408.5313 3110.7813,408.1406 Q3110.7813,407.7656 3111.0469,407.5313 Q3111.3125,407.2969 3111.9219,407.2969 L3112.3438,407.2969 L3111.9375,406.2656 Z M3111.2188,404.5625 L3109.8594,401.1875 L3108.4844,404.5625 L3111.2188,404.5625 Z " fill="#000000"/><text fill="#000000" font-family="sans-serif" font-size="14" font-style="italic" lengthAdjust="spacing" textLength="108" x="3130.25" y="410.2285">ObjetoGeometria</text><line style="stroke:#181818;stroke-width:0.5;" x1="2946.5" x2="3389.5" y1="420.5" y2="420.5"/><line style="stroke:#181818;stroke-width:0.5;" x1="2946.5" x2="3389.5" y1="428.5" y2="428.5"/><ellipse cx="2956.5" cy="442.8047" fill="#84BE84" rx="3" ry="3" style="stroke:#038048;stroke-width:1.0;"/><text fill="#000000" font-family="sans-serif" font-size="14" lengthAdjust="spacing" textLength="288" x="2965.5" y="447.0332">ObjetoGeometria(rotulo:string, paiRef:Objeto)</text><ellipse cx="2956.5" cy="460.4141" fill="#84BE84" rx="3" ry="3" style="stroke:#038048;stroke-width:1.0;"/><text fill="#000000" font-family="sans-serif" font-size="14" lengthAdjust="spacing" textLength="230" x="2965.5" y="464.6426">PontosAdicionar(pto:Ponto4D) : void</text><ellipse cx="2956.5" cy="478.0234" fill="#84BE84" rx="3" ry="3" style="stroke:#038048;stroke-width:1.0;"/><text fill="#000000" font-family="sans-serif" font-size="14" lengthAdjust="spacing" textLength="230" x="2965.5" y="482.252">PontosRemoverAt(posicao:int) : void</text><ellipse cx="2956.5" cy="495.6328" fill="#84BE84" rx="3" ry="3" style="stroke:#038048;stroke-width:1.0;"/><text fill="#000000" font-family="sans-serif" font-size="14" lengthAdjust="spacing" textLength="187" x="2965.5" y="499.8613">PontosRemoverUltimo() : void</text><ellipse cx="2956.5" cy="513.2422" fill="#84BE84" rx="3" ry="3" style="stroke:#038048;stroke-width:1.0;"/><text fill="#000000" font-family="sans-serif" font-size="14" lengthAdjust="spacing" textLength="159" x="2965.5" y="517.4707">PontosUltimo() : Ponto4D</text><ellipse cx="2956.5" cy="530.8516" fill="#84BE84" rx="3" ry="3" style="stroke:#038048;stroke-width:1.0;"/><text fill="#000000" font-family="sans-serif" font-size="14" lengthAdjust="spacing" textLength="289" x="2965.5" y="535.0801">PontosAlterar(pto:Ponto4D, posicao:int) : void</text><ellipse cx="2956.5" cy="548.4609" fill="#84BE84" rx="3" ry="3" style="stroke:#038048;stroke-width:1.0;"/><text fill="#000000" font-family="sans-serif" font-size="14" lengthAdjust="spacing" textLength="409" x="2965.5" y="552.6895">VerticeMaisProximo(pontoMouse:Ponto4D, isRemove:bool) : void</text><ellipse cx="2956.5" cy="566.0703" fill="#84BE84" rx="3" ry="3" style="stroke:#038048;stroke-width:1.0;"/><text fill="#000000" font-family="sans-serif" font-size="14" lengthAdjust="spacing" textLength="358" x="2965.5" y="570.2988">ScanlineIntesec(y:double, y1:double, y2:double) : double</text><ellipse cx="2956.5" cy="583.6797" fill="#84BE84" rx="3" ry="3" style="stroke:#038048;stroke-width:1.0;"/><text fill="#000000" font-family="sans-serif" font-size="14" lengthAdjust="spacing" textLength="245" x="2965.5" y="587.9082">ScanLine(pontoMouse:Ponto4D) : bool</text><ellipse cx="2956.5" cy="601.2891" fill="#84BE84" rx="3" ry="3" style="stroke:#038048;stroke-width:1.0;"/><text fill="#000000" font-family="sans-serif" font-size="14" lengthAdjust="spacing" textLength="371" x="2965.5" y="605.5176">ScanlineCalcularXi(x1:double, x2:double, t:double) : double</text><ellipse cx="2956.5" cy="618.8984" fill="#84BE84" rx="3" ry="3" style="stroke:#038048;stroke-width:1.0;"/><text fill="#000000" font-family="sans-serif" font-size="14" lengthAdjust="spacing" textLength="419" x="2965.5" y="623.127">ScanLine(pontoMouse:Ponto4D, listaPontos:List&lt;Ponto4D&gt;) : bool</text><ellipse cx="2956.5" cy="636.5078" fill="#84BE84" rx="3" ry="3" style="stroke:#038048;stroke-width:1.0;"/><text fill="#000000" font-family="sans-serif" font-size="14" lengthAdjust="spacing" textLength="183" x="2965.5" y="640.7363">«override» ToString() : string</text></g><!--MD5=[b6968d6f0311dc2ba07018bef6e7bfd3]
class Retangulo--><g id="elem_Retangulo"><rect codeLine="87" fill="#F1F1F1" height="83.2188" id="Retangulo" rx="2.5" ry="2.5" style="stroke:#181818;stroke-width:0.5;" width="527" x="2375.5" y="778"/><ellipse cx="2602.25" cy="794" fill="#ADD1B2" rx="11" ry="11" style="stroke:#181818;stroke-width:1.0;"/><path d="M2605.0156,789.875 Q2605.1719,789.6563 2605.3594,789.5469 Q2605.5469,789.4375 2605.7656,789.4375 Q2606.1406,789.4375 2606.375,789.7031 Q2606.6094,789.9531 2606.6094,790.5625 L2606.6094,792.0156 Q2606.6094,792.625 2606.375,792.8906 Q2606.1406,793.1563 2605.7656,793.1563 Q2605.4219,793.1563 2605.2188,792.9531 Q2605.0156,792.7656 2604.9063,792.25 Q2604.8594,791.8906 2604.6719,791.7031 Q2604.3438,791.3281 2603.7344,791.1094 Q2603.125,790.8906 2602.5,790.8906 Q2601.7344,790.8906 2601.0938,791.2188 Q2600.4688,791.5469 2599.9688,792.2969 Q2599.4844,793.0469 2599.4844,794.0781 L2599.4844,795.1719 Q2599.4844,796.4063 2600.375,797.2344 Q2601.2656,798.0469 2602.8594,798.0469 Q2603.7969,798.0469 2604.4531,797.7969 Q2604.8438,797.6406 2605.2656,797.2031 Q2605.5313,796.9375 2605.6719,796.8594 Q2605.8281,796.7813 2606.0313,796.7813 Q2606.3594,796.7813 2606.6094,797.0469 Q2606.875,797.2969 2606.875,797.6406 Q2606.875,797.9844 2606.5313,798.3906 Q2606.0313,798.9688 2605.2344,799.2969 Q2604.1563,799.75 2602.8594,799.75 Q2601.3438,799.75 2600.1406,799.125 Q2599.1563,798.625 2598.4688,797.5625 Q2597.7813,796.4844 2597.7813,795.2031 L2597.7813,794.0469 Q2597.7813,792.7188 2598.3906,791.5781 Q2599.0156,790.4219 2600.1094,789.8125 Q2601.2031,789.1875 2602.4375,789.1875 Q2603.1719,789.1875 2603.8125,789.3594 Q2604.4688,789.5156 2605.0156,789.875 Z " fill="#000000"/><text fill="#000000" font-family="sans-serif" font-size="14" lengthAdjust="spacing" textLength="65" x="2622.75" y="799.7285">Retangulo</text><line style="stroke:#181818;stroke-width:0.5;" x1="2376.5" x2="2901.5" y1="810" y2="810"/><line style="stroke:#181818;stroke-width:0.5;" x1="2376.5" x2="2901.5" y1="818" y2="818"/><ellipse cx="2386.5" cy="832.3047" fill="#84BE84" rx="3" ry="3" style="stroke:#038048;stroke-width:1.0;"/><text fill="#000000" font-family="sans-serif" font-size="14" lengthAdjust="spacing" textLength="501" x="2395.5" y="836.5332">Retangulo(rotulo:string, paiRef:Objeto, ptoInfEsq:Ponto4D, ptoSupDir:Ponto4D)</text><ellipse cx="2386.5" cy="849.9141" fill="#84BE84" rx="3" ry="3" style="stroke:#038048;stroke-width:1.0;"/><text fill="#000000" font-family="sans-serif" font-size="14" lengthAdjust="spacing" textLength="183" x="2395.5" y="854.1426">«override» ToString() : string</text></g><!--MD5=[14270d418d81d90ef0399f0e3d0d5129]
class Poligono--><g id="elem_Poligono"><rect codeLine="92" fill="#F1F1F1" height="83.2188" id="Poligono" rx="2.5" ry="2.5" style="stroke:#181818;stroke-width:0.5;" width="239" x="2937.5" y="778"/><ellipse cx="3025.25" cy="794" fill="#ADD1B2" rx="11" ry="11" style="stroke:#181818;stroke-width:1.0;"/><path d="M3028.0156,789.875 Q3028.1719,789.6563 3028.3594,789.5469 Q3028.5469,789.4375 3028.7656,789.4375 Q3029.1406,789.4375 3029.375,789.7031 Q3029.6094,789.9531 3029.6094,790.5625 L3029.6094,792.0156 Q3029.6094,792.625 3029.375,792.8906 Q3029.1406,793.1563 3028.7656,793.1563 Q3028.4219,793.1563 3028.2188,792.9531 Q3028.0156,792.7656 3027.9063,792.25 Q3027.8594,791.8906 3027.6719,791.7031 Q3027.3438,791.3281 3026.7344,791.1094 Q3026.125,790.8906 3025.5,790.8906 Q3024.7344,790.8906 3024.0938,791.2188 Q3023.4688,791.5469 3022.9688,792.2969 Q3022.4844,793.0469 3022.4844,794.0781 L3022.4844,795.1719 Q3022.4844,796.4063 3023.375,797.2344 Q3024.2656,798.0469 3025.8594,798.0469 Q3026.7969,798.0469 3027.4531,797.7969 Q3027.8438,797.6406 3028.2656,797.2031 Q3028.5313,796.9375 3028.6719,796.8594 Q3028.8281,796.7813 3029.0313,796.7813 Q3029.3594,796.7813 3029.6094,797.0469 Q3029.875,797.2969 3029.875,797.6406 Q3029.875,797.9844 3029.5313,798.3906 Q3029.0313,798.9688 3028.2344,799.2969 Q3027.1563,799.75 3025.8594,799.75 Q3024.3438,799.75 3023.1406,799.125 Q3022.1563,798.625 3021.4688,797.5625 Q3020.7813,796.4844 3020.7813,795.2031 L3020.7813,794.0469 Q3020.7813,792.7188 3021.3906,791.5781 Q3022.0156,790.4219 3023.1094,789.8125 Q3024.2031,789.1875 3025.4375,789.1875 Q3026.1719,789.1875 3026.8125,789.3594 Q3027.4688,789.5156 3028.0156,789.875 Z " fill="#000000"/><text fill="#000000" font-family="sans-serif" font-size="14" lengthAdjust="spacing" textLength="55" x="3045.75" y="799.7285">Poligono</text><line style="stroke:#181818;stroke-width:0.5;" x1="2938.5" x2="3175.5" y1="810" y2="810"/><line style="stroke:#181818;stroke-width:0.5;" x1="2938.5" x2="3175.5" y1="818" y2="818"/><ellipse cx="2948.5" cy="832.3047" fill="#84BE84" rx="3" ry="3" style="stroke:#038048;stroke-width:1.0;"/><text fill="#000000" font-family="sans-serif" font-size="14" lengthAdjust="spacing" textLength="213" x="2957.5" y="836.5332">Poligono(rotulo:string, pai:Objeto)</text><ellipse cx="2948.5" cy="849.9141" fill="#84BE84" rx="3" ry="3" style="stroke:#038048;stroke-width:1.0;"/><text fill="#000000" font-family="sans-serif" font-size="14" lengthAdjust="spacing" textLength="183" x="2957.5" y="854.1426">«override» ToString() : string</text></g><!--MD5=[7285b5824e67b16848be7ff6288389e6]
class Utilitario--><g id="elem_Utilitario"><rect codeLine="97" fill="#F1F1F1" height="83.2188" id="Utilitario" rx="2.5" ry="2.5" style="stroke:#181818;stroke-width:0.5;" width="217" x="918.5" y="113"/><ellipse cx="997.25" cy="129" fill="#A9DCDF" rx="11" ry="11" style="stroke:#181818;stroke-width:1.0;"/><path d="M999.4375,130.7656 L995.2969,130.7656 L994.875,131.7969 L995.2969,131.7969 Q995.9063,131.7969 996.1719,132.0313 Q996.4375,132.2656 996.4375,132.6563 Q996.4375,133.0313 996.1719,133.2656 Q995.9063,133.5 995.2969,133.5 L993,133.5 Q992.3906,133.5 992.1406,133.2656 Q991.875,133.0313 991.875,132.6406 Q991.875,132.2656 992.1563,132.0313 Q992.4219,131.7813 993.0469,131.7969 L995.7188,125.1406 L994.6094,125.1406 Q994,125.1406 993.7344,124.9063 Q993.4688,124.6719 993.4688,124.2813 Q993.4688,123.9063 993.7344,123.6719 Q994,123.4375 994.6094,123.4375 L998.2813,123.4375 L1001.6719,131.7969 Q1002.2656,131.7969 1002.4531,131.9375 Q1002.8438,132.2031 1002.8438,132.6563 Q1002.8438,133.0313 1002.5781,133.2656 Q1002.3281,133.5 1001.7188,133.5 L999.4219,133.5 Q998.8125,133.5 998.5469,133.2656 Q998.2813,133.0313 998.2813,132.6406 Q998.2813,132.2656 998.5469,132.0313 Q998.8125,131.7969 999.4219,131.7969 L999.8438,131.7969 L999.4375,130.7656 Z M998.7188,129.0625 L997.3594,125.6875 L995.9844,129.0625 L998.7188,129.0625 Z " fill="#000000"/><text fill="#000000" font-family="sans-serif" font-size="14" font-style="italic" lengthAdjust="spacing" textLength="51" x="1017.75" y="134.7285">Utilitario</text><line style="stroke:#181818;stroke-width:0.5;" x1="919.5" x2="1134.5" y1="145" y2="145"/><line style="stroke:#181818;stroke-width:0.5;" x1="919.5" x2="1134.5" y1="153" y2="153"/><ellipse cx="929.5" cy="167.3047" fill="#84BE84" rx="3" ry="3" style="stroke:#038048;stroke-width:1.0;"/><text fill="#000000" font-family="sans-serif" font-size="14" lengthAdjust="spacing" text-decoration="underline" textLength="135" x="938.5" y="171.5332">AjudaTeclado() : void</text><ellipse cx="929.5" cy="184.9141" fill="#84BE84" rx="3" ry="3" style="stroke:#038048;stroke-width:1.0;"/><text fill="#000000" font-family="sans-serif" font-size="14" lengthAdjust="spacing" text-decoration="underline" textLength="191" x="938.5" y="189.1426">charProximo(atual:char) : char</text></g><!--MD5=[5650d724fe4a8bb070f5bb710507d40c]
class Privado_BBox--><g id="elem_Privado_BBox"><rect codeLine="101" fill="#F1F1F1" height="65.6094" id="Privado_BBox" rx="2.5" ry="2.5" style="stroke:#181818;stroke-width:0.5;" width="272" x="7" y="485"/><ellipse cx="95.25" cy="501" fill="#A9DCDF" rx="11" ry="11" style="stroke:#181818;stroke-width:1.0;"/><path d="M97.4375,502.7656 L93.2969,502.7656 L92.875,503.7969 L93.2969,503.7969 Q93.9063,503.7969 94.1719,504.0313 Q94.4375,504.2656 94.4375,504.6563 Q94.4375,505.0313 94.1719,505.2656 Q93.9063,505.5 93.2969,505.5 L91,505.5 Q90.3906,505.5 90.1406,505.2656 Q89.875,505.0313 89.875,504.6406 Q89.875,504.2656 90.1563,504.0313 Q90.4219,503.7813 91.0469,503.7969 L93.7188,497.1406 L92.6094,497.1406 Q92,497.1406 91.7344,496.9063 Q91.4688,496.6719 91.4688,496.2813 Q91.4688,495.9063 91.7344,495.6719 Q92,495.4375 92.6094,495.4375 L96.2813,495.4375 L99.6719,503.7969 Q100.2656,503.7969 100.4531,503.9375 Q100.8438,504.2031 100.8438,504.6563 Q100.8438,505.0313 100.5781,505.2656 Q100.3281,505.5 99.7188,505.5 L97.4219,505.5 Q96.8125,505.5 96.5469,505.2656 Q96.2813,505.0313 96.2813,504.6406 Q96.2813,504.2656 96.5469,504.0313 Q96.8125,503.7969 97.4219,503.7969 L97.8438,503.7969 L97.4375,502.7656 Z M96.7188,501.0625 L95.3594,497.6875 L93.9844,501.0625 L96.7188,501.0625 Z " fill="#000000"/><text fill="#000000" font-family="sans-serif" font-size="14" font-style="italic" lengthAdjust="spacing" textLength="87" x="115.75" y="506.7285">Privado_BBox</text><line style="stroke:#181818;stroke-width:0.5;" x1="8" x2="278" y1="517" y2="517"/><line style="stroke:#181818;stroke-width:0.5;" x1="8" x2="278" y1="525" y2="525"/><ellipse cx="18" cy="539.3047" fill="#84BE84" rx="3" ry="3" style="stroke:#038048;stroke-width:1.0;"/><text fill="#000000" font-family="sans-serif" font-size="14" lengthAdjust="spacing" text-decoration="underline" textLength="246" x="27" y="543.5332">Dentro(bBox:BBox, pto:Ponto4D) : bool</text></g><!--MD5=[c3c34a12a27bba7e909822120bf61f6f]
class Privado_Circulo--><g id="elem_Privado_Circulo"><rect codeLine="104" fill="#F1F1F1" height="83.2188" id="Privado_Circulo" rx="2.5" ry="2.5" style="stroke:#181818;stroke-width:0.5;" width="515" x="3211.5" y="778"/><ellipse cx="3414.75" cy="794" fill="#ADD1B2" rx="11" ry="11" style="stroke:#181818;stroke-width:1.0;"/><path d="M3417.5156,789.875 Q3417.6719,789.6563 3417.8594,789.5469 Q3418.0469,789.4375 3418.2656,789.4375 Q3418.6406,789.4375 3418.875,789.7031 Q3419.1094,789.9531 3419.1094,790.5625 L3419.1094,792.0156 Q3419.1094,792.625 3418.875,792.8906 Q3418.6406,793.1563 3418.2656,793.1563 Q3417.9219,793.1563 3417.7188,792.9531 Q3417.5156,792.7656 3417.4063,792.25 Q3417.3594,791.8906 3417.1719,791.7031 Q3416.8438,791.3281 3416.2344,791.1094 Q3415.625,790.8906 3415,790.8906 Q3414.2344,790.8906 3413.5938,791.2188 Q3412.9688,791.5469 3412.4688,792.2969 Q3411.9844,793.0469 3411.9844,794.0781 L3411.9844,795.1719 Q3411.9844,796.4063 3412.875,797.2344 Q3413.7656,798.0469 3415.3594,798.0469 Q3416.2969,798.0469 3416.9531,797.7969 Q3417.3438,797.6406 3417.7656,797.2031 Q3418.0313,796.9375 3418.1719,796.8594 Q3418.3281,796.7813 3418.5313,796.7813 Q3418.8594,796.7813 3419.1094,797.0469 Q3419.375,797.2969 3419.375,797.6406 Q3419.375,797.9844 3419.0313,798.3906 Q3418.5313,798.9688 3417.7344,799.2969 Q3416.6563,799.75 3415.3594,799.75 Q3413.8438,799.75 3412.6406,799.125 Q3411.6563,798.625 3410.9688,797.5625 Q3410.2813,796.4844 3410.2813,795.2031 L3410.2813,794.0469 Q3410.2813,792.7188 3410.8906,791.5781 Q3411.5156,790.4219 3412.6094,789.8125 Q3413.7031,789.1875 3414.9375,789.1875 Q3415.6719,789.1875 3416.3125,789.3594 Q3416.9688,789.5156 3417.5156,789.875 Z " fill="#000000"/><text fill="#000000" font-family="sans-serif" font-size="14" lengthAdjust="spacing" textLength="100" x="3435.25" y="799.7285">Privado_Circulo</text><line style="stroke:#181818;stroke-width:0.5;" x1="3212.5" x2="3725.5" y1="810" y2="810"/><line style="stroke:#181818;stroke-width:0.5;" x1="3212.5" x2="3725.5" y1="818" y2="818"/><ellipse cx="3222.5" cy="832.3047" fill="#84BE84" rx="3" ry="3" style="stroke:#038048;stroke-width:1.0;"/><text fill="#000000" font-family="sans-serif" font-size="14" lengthAdjust="spacing" textLength="489" x="3231.5" y="836.5332">Privado_Circulo(rotulo:string, paiRef:Objeto, ptoCentro:Ponto4D, raio:double)</text><ellipse cx="3222.5" cy="849.9141" fill="#84BE84" rx="3" ry="3" style="stroke:#038048;stroke-width:1.0;"/><text fill="#000000" font-family="sans-serif" font-size="14" lengthAdjust="spacing" textLength="183" x="3231.5" y="854.1426">«override» ToString() : string</text></g><!--MD5=[57370106b09f55ffa37deb7835ffe78b]
class Matematica--><g id="elem_Matematica"><rect codeLine="109" fill="#F1F1F1" height="100.8281" id="Matematica" rx="2.5" ry="2.5" style="stroke:#181818;stroke-width:0.5;" width="484" x="314" y="467.5"/><ellipse cx="515.25" cy="483.5" fill="#A9DCDF" rx="11" ry="11" style="stroke:#181818;stroke-width:1.0;"/><path d="M517.4375,485.2656 L513.2969,485.2656 L512.875,486.2969 L513.2969,486.2969 Q513.9063,486.2969 514.1719,486.5313 Q514.4375,486.7656 514.4375,487.1563 Q514.4375,487.5313 514.1719,487.7656 Q513.9063,488 513.2969,488 L511,488 Q510.3906,488 510.1406,487.7656 Q509.875,487.5313 509.875,487.1406 Q509.875,486.7656 510.1563,486.5313 Q510.4219,486.2813 511.0469,486.2969 L513.7188,479.6406 L512.6094,479.6406 Q512,479.6406 511.7344,479.4063 Q511.4688,479.1719 511.4688,478.7813 Q511.4688,478.4063 511.7344,478.1719 Q512,477.9375 512.6094,477.9375 L516.2813,477.9375 L519.6719,486.2969 Q520.2656,486.2969 520.4531,486.4375 Q520.8438,486.7031 520.8438,487.1563 Q520.8438,487.5313 520.5781,487.7656 Q520.3281,488 519.7188,488 L517.4219,488 Q516.8125,488 516.5469,487.7656 Q516.2813,487.5313 516.2813,487.1406 Q516.2813,486.7656 516.5469,486.5313 Q516.8125,486.2969 517.4219,486.2969 L517.8438,486.2969 L517.4375,485.2656 Z M516.7188,483.5625 L515.3594,480.1875 L513.9844,483.5625 L516.7188,483.5625 Z " fill="#000000"/><text fill="#000000" font-family="sans-serif" font-size="14" font-style="italic" lengthAdjust="spacing" textLength="73" x="535.75" y="489.2285">Matematica</text><line style="stroke:#181818;stroke-width:0.5;" x1="315" x2="797" y1="499.5" y2="499.5"/><line style="stroke:#181818;stroke-width:0.5;" x1="315" x2="797" y1="507.5" y2="507.5"/><ellipse cx="325" cy="521.8047" fill="#84BE84" rx="3" ry="3" style="stroke:#038048;stroke-width:1.0;"/><text fill="#000000" font-family="sans-serif" font-size="14" lengthAdjust="spacing" text-decoration="underline" textLength="355" x="334" y="526.0332">GerarPtosCirculo(angulo:double, raio:double) : Ponto4D</text><ellipse cx="325" cy="539.4141" fill="#84BE84" rx="3" ry="3" style="stroke:#038048;stroke-width:1.0;"/><text fill="#000000" font-family="sans-serif" font-size="14" lengthAdjust="spacing" text-decoration="underline" textLength="303" x="334" y="543.6426">GerarPtosCirculoSimétrico(raio:double) : double</text><ellipse cx="325" cy="557.0234" fill="#84BE84" rx="3" ry="3" style="stroke:#038048;stroke-width:1.0;"/><text fill="#000000" font-family="sans-serif" font-size="14" lengthAdjust="spacing" text-decoration="underline" textLength="458" x="334" y="561.252">DistanciaEuclidiana(pontoLista:Ponto4D, pontoMouse:Ponto4D) : double</text></g><!--MD5=[48de76ac9e45cd2dd14a095e4e7d40a3]
class Privado_SegReta--><g id="elem_Privado_SegReta"><rect codeLine="114" fill="#F1F1F1" height="83.2188" id="Privado_SegReta" rx="2.5" ry="2.5" style="stroke:#181818;stroke-width:0.5;" width="528" x="3762" y="778"/><ellipse cx="3966.25" cy="794" fill="#ADD1B2" rx="11" ry="11" style="stroke:#181818;stroke-width:1.0;"/><path d="M3969.0156,789.875 Q3969.1719,789.6563 3969.3594,789.5469 Q3969.5469,789.4375 3969.7656,789.4375 Q3970.1406,789.4375 3970.375,789.7031 Q3970.6094,789.9531 3970.6094,790.5625 L3970.6094,792.0156 Q3970.6094,792.625 3970.375,792.8906 Q3970.1406,793.1563 3969.7656,793.1563 Q3969.4219,793.1563 3969.2188,792.9531 Q3969.0156,792.7656 3968.9063,792.25 Q3968.8594,791.8906 3968.6719,791.7031 Q3968.3438,791.3281 3967.7344,791.1094 Q3967.125,790.8906 3966.5,790.8906 Q3965.7344,790.8906 3965.0938,791.2188 Q3964.4688,791.5469 3963.9688,792.2969 Q3963.4844,793.0469 3963.4844,794.0781 L3963.4844,795.1719 Q3963.4844,796.4063 3964.375,797.2344 Q3965.2656,798.0469 3966.8594,798.0469 Q3967.7969,798.0469 3968.4531,797.7969 Q3968.8438,797.6406 3969.2656,797.2031 Q3969.5313,796.9375 3969.6719,796.8594 Q3969.8281,796.7813 3970.0313,796.7813 Q3970.3594,796.7813 3970.6094,797.0469 Q3970.875,797.2969 3970.875,797.6406 Q3970.875,797.9844 3970.5313,798.3906 Q3970.0313,798.9688 3969.2344,799.2969 Q3968.1563,799.75 3966.8594,799.75 Q3965.3438,799.75 3964.1406,799.125 Q3963.1563,798.625 3962.4688,797.5625 Q3961.7813,796.4844 3961.7813,795.2031 L3961.7813,794.0469 Q3961.7813,792.7188 3962.3906,791.5781 Q3963.0156,790.4219 3964.1094,789.8125 Q3965.2031,789.1875 3966.4375,789.1875 Q3967.1719,789.1875 3967.8125,789.3594 Q3968.4688,789.5156 3969.0156,789.875 Z " fill="#000000"/><text fill="#000000" font-family="sans-serif" font-size="14" lengthAdjust="spacing" textLength="111" x="3986.75" y="799.7285">Privado_SegReta</text><line style="stroke:#181818;stroke-width:0.5;" x1="3763" x2="4289" y1="810" y2="810"/><line style="stroke:#181818;stroke-width:0.5;" x1="3763" x2="4289" y1="818" y2="818"/><ellipse cx="3773" cy="832.3047" fill="#84BE84" rx="3" ry="3" style="stroke:#038048;stroke-width:1.0;"/><text fill="#000000" font-family="sans-serif" font-size="14" lengthAdjust="spacing" textLength="502" x="3782" y="836.5332">Privado_SegReta(rotulo:string, paiRef:Objeto, ptoIni:Ponto4D, ptoFim:Ponto4D)</text><ellipse cx="3773" cy="849.9141" fill="#84BE84" rx="3" ry="3" style="stroke:#038048;stroke-width:1.0;"/><text fill="#000000" font-family="sans-serif" font-size="14" lengthAdjust="spacing" textLength="183" x="3782" y="854.1426">«override» ToString() : string</text></g><!--MD5=[6746db26fbf3328699b5b65a634cc0f3]
class Transformacao4D--><g id="elem_Transformacao4D"><rect codeLine="128" fill="#F1F1F1" height="312.1406" id="Transformacao4D" rx="2.5" ry="2.5" style="stroke:#181818;stroke-width:0.5;" width="543" x="833.5" y="362"/><ellipse cx="1043.75" cy="378" fill="#ADD1B2" rx="11" ry="11" style="stroke:#181818;stroke-width:1.0;"/><path d="M1046.5156,373.875 Q1046.6719,373.6563 1046.8594,373.5469 Q1047.0469,373.4375 1047.2656,373.4375 Q1047.6406,373.4375 1047.875,373.7031 Q1048.1094,373.9531 1048.1094,374.5625 L1048.1094,376.0156 Q1048.1094,376.625 1047.875,376.8906 Q1047.6406,377.1563 1047.2656,377.1563 Q1046.9219,377.1563 1046.7188,376.9531 Q1046.5156,376.7656 1046.4063,376.25 Q1046.3594,375.8906 1046.1719,375.7031 Q1045.8438,375.3281 1045.2344,375.1094 Q1044.625,374.8906 1044,374.8906 Q1043.2344,374.8906 1042.5938,375.2188 Q1041.9688,375.5469 1041.4688,376.2969 Q1040.9844,377.0469 1040.9844,378.0781 L1040.9844,379.1719 Q1040.9844,380.4063 1041.875,381.2344 Q1042.7656,382.0469 1044.3594,382.0469 Q1045.2969,382.0469 1045.9531,381.7969 Q1046.3438,381.6406 1046.7656,381.2031 Q1047.0313,380.9375 1047.1719,380.8594 Q1047.3281,380.7813 1047.5313,380.7813 Q1047.8594,380.7813 1048.1094,381.0469 Q1048.375,381.2969 1048.375,381.6406 Q1048.375,381.9844 1048.0313,382.3906 Q1047.5313,382.9688 1046.7344,383.2969 Q1045.6563,383.75 1044.3594,383.75 Q1042.8438,383.75 1041.6406,383.125 Q1040.6563,382.625 1039.9688,381.5625 Q1039.2813,380.4844 1039.2813,379.2031 L1039.2813,378.0469 Q1039.2813,376.7188 1039.8906,375.5781 Q1040.5156,374.4219 1041.6094,373.8125 Q1042.7031,373.1875 1043.9375,373.1875 Q1044.6719,373.1875 1045.3125,373.3594 Q1045.9688,373.5156 1046.5156,373.875 Z " fill="#000000"/><text fill="#000000" font-family="sans-serif" font-size="14" lengthAdjust="spacing" textLength="114" x="1064.25" y="383.7285">Transformacao4D</text><line style="stroke:#181818;stroke-width:0.5;" x1="834.5" x2="1375.5" y1="394" y2="394"/><ellipse cx="844.5" cy="408.3047" fill="none" rx="3" ry="3" style="stroke:#038048;stroke-width:1.0;"/><text fill="#000000" font-family="sans-serif" font-size="14" lengthAdjust="spacing" text-decoration="underline" textLength="517" x="853.5" y="412.5332">«readonly» DEG_TO_RAD : double = 0.017453292519943295769236907684886</text><line style="stroke:#181818;stroke-width:0.5;" x1="834.5" x2="1375.5" y1="419.6094" y2="419.6094"/><ellipse cx="844.5" cy="433.9141" fill="#84BE84" rx="3" ry="3" style="stroke:#038048;stroke-width:1.0;"/><text fill="#000000" font-family="sans-serif" font-size="14" lengthAdjust="spacing" textLength="124" x="853.5" y="438.1426">Transformacao4D()</text><ellipse cx="844.5" cy="451.5234" fill="#84BE84" rx="3" ry="3" style="stroke:#038048;stroke-width:1.0;"/><text fill="#000000" font-family="sans-serif" font-size="14" lengthAdjust="spacing" textLength="159" x="853.5" y="455.752">AtribuirIdentidade() : void</text><ellipse cx="844.5" cy="469.1328" fill="#84BE84" rx="3" ry="3" style="stroke:#038048;stroke-width:1.0;"/><text fill="#000000" font-family="sans-serif" font-size="14" lengthAdjust="spacing" textLength="352" x="853.5" y="473.3613">AtribuirTranslacao(tx:double, ty:double, tz:double) : void</text><ellipse cx="844.5" cy="486.7422" fill="#84BE84" rx="3" ry="3" style="stroke:#038048;stroke-width:1.0;"/><text fill="#000000" font-family="sans-serif" font-size="14" lengthAdjust="spacing" textLength="338" x="853.5" y="490.9707">AtribuirEscala(sX:double, sY:double, sZ:double) : void</text><ellipse cx="844.5" cy="504.3516" fill="#84BE84" rx="3" ry="3" style="stroke:#038048;stroke-width:1.0;"/><text fill="#000000" font-family="sans-serif" font-size="14" lengthAdjust="spacing" textLength="248" x="853.5" y="508.5801">AtribuirRotacaoX(radians:double) : void</text><ellipse cx="844.5" cy="521.9609" fill="#84BE84" rx="3" ry="3" style="stroke:#038048;stroke-width:1.0;"/><text fill="#000000" font-family="sans-serif" font-size="14" lengthAdjust="spacing" textLength="249" x="853.5" y="526.1895">AtribuirRotacaoY(radians:double) : void</text><ellipse cx="844.5" cy="539.5703" fill="#84BE84" rx="3" ry="3" style="stroke:#038048;stroke-width:1.0;"/><text fill="#000000" font-family="sans-serif" font-size="14" lengthAdjust="spacing" textLength="248" x="853.5" y="543.7988">AtribuirRotacaoZ(radians:double) : void</text><ellipse cx="844.5" cy="557.1797" fill="#84BE84" rx="3" ry="3" style="stroke:#038048;stroke-width:1.0;"/><text fill="#000000" font-family="sans-serif" font-size="14" lengthAdjust="spacing" textLength="256" x="853.5" y="561.4082">MultiplicarPonto(pto:Ponto4D) : Ponto4D</text><ellipse cx="844.5" cy="574.7891" fill="#84BE84" rx="3" ry="3" style="stroke:#038048;stroke-width:1.0;"/><text fill="#000000" font-family="sans-serif" font-size="14" lengthAdjust="spacing" textLength="358" x="853.5" y="579.0176">MultiplicarMatriz(t:Transformacao4D) : Transformacao4D</text><ellipse cx="844.5" cy="592.3984" fill="#84BE84" rx="3" ry="3" style="stroke:#038048;stroke-width:1.0;"/><text fill="#000000" font-family="sans-serif" font-size="14" lengthAdjust="spacing" textLength="212" x="853.5" y="596.627">ObterElemento(index:int) : double</text><ellipse cx="844.5" cy="610.0078" fill="#84BE84" rx="3" ry="3" style="stroke:#038048;stroke-width:1.0;"/><text fill="#000000" font-family="sans-serif" font-size="14" lengthAdjust="spacing" textLength="293" x="853.5" y="614.2363">AtribuirElemento(index:int, value:double) : void</text><ellipse cx="844.5" cy="627.6172" fill="#84BE84" rx="3" ry="3" style="stroke:#038048;stroke-width:1.0;"/><text fill="#000000" font-family="sans-serif" font-size="14" lengthAdjust="spacing" textLength="150" x="853.5" y="631.8457">ObterDados() : double[]</text><ellipse cx="844.5" cy="645.2266" fill="#84BE84" rx="3" ry="3" style="stroke:#038048;stroke-width:1.0;"/><text fill="#000000" font-family="sans-serif" font-size="14" lengthAdjust="spacing" textLength="217" x="853.5" y="649.4551">AtribuirDados(data:double[]) : void</text><ellipse cx="844.5" cy="662.8359" fill="#84BE84" rx="3" ry="3" style="stroke:#038048;stroke-width:1.0;"/><text fill="#000000" font-family="sans-serif" font-size="14" lengthAdjust="spacing" textLength="183" x="853.5" y="667.0645">«override» ToString() : string</text></g><!--MD5=[3c0e7ba23ee97378347dee0d1da8e8b4]
reverse link GameWindow to Mundo--><g id="link_GameWindow_Mundo"><path codeLine="9" d="M1554,199.01 C1554,266.54 1554,396.19 1554,467.31 " fill="none" id="GameWindow-backto-Mundo" style="stroke:#181818;stroke-width:1.0;"/><polygon fill="none" points="1547,198.66,1554,178.66,1561,198.66,1547,198.66" style="stroke:#181818;stroke-width:1.0;"/></g><!--MD5=[21d10fafb72c8ad2b9cea5ee0b564837]
link BBox to Ponto4D--><g id="link_BBox_Ponto4D"><path codeLine="25" d="M2064,656.92 C2064,681.32 2064,706.15 2064,728.79 " fill="none" id="BBox-to-Ponto4D" style="stroke:#181818;stroke-width:1.0;"/><polygon fill="#181818" points="2064,733.88,2068,724.88,2064,728.88,2060,724.88,2064,733.88" style="stroke:#181818;stroke-width:1.0;"/><text fill="#000000" font-family="sans-serif" font-size="13" lengthAdjust="spacing" textLength="67" x="1994.0164" y="723.0409">obterCentro</text></g><!--MD5=[f94cdd04709e36a9b2c27ce98e350cf2]
link CameraPerspective to Vector3--><g id="link_CameraPerspective_Vector3"><path codeLine="50" d="M3444.12,231.72 C3436.51,311.99 3438.84,434.17 3451.1,488.84 " fill="none" id="CameraPerspective-to-Vector3" style="stroke:#181818;stroke-width:1.0;"/><polygon fill="#181818" points="3452.32,493.91,3454.0984,484.223,3451.1477,489.0494,3446.3214,486.0987,3452.32,493.91" style="stroke:#181818;stroke-width:1.0;"/><text fill="#000000" font-family="sans-serif" font-size="13" lengthAdjust="spacing" textLength="23" x="3422.8676" y="483.2271">Eye</text></g><!--MD5=[f94cdd04709e36a9b2c27ce98e350cf2]
link CameraPerspective to Vector3--><g id="link_CameraPerspective_Vector3"><path codeLine="51" d="M3466,231.72 C3466,311.99 3466,434.17 3466,488.84 " fill="none" id="CameraPerspective-to-Vector3-1" style="stroke:#181818;stroke-width:1.0;"/><polygon fill="#181818" points="3466,493.91,3470,484.91,3466,488.91,3462,484.91,3466,493.91" style="stroke:#181818;stroke-width:1.0;"/><text fill="#000000" font-family="sans-serif" font-size="13" lengthAdjust="spacing" textLength="13" x="3451.3344" y="483.2271">At</text></g><!--MD5=[f94cdd04709e36a9b2c27ce98e350cf2]
link CameraPerspective to Vector3--><g id="link_CameraPerspective_Vector3"><path codeLine="52" d="M3487.88,231.72 C3495.49,311.99 3493.16,434.17 3480.9,488.84 " fill="none" id="CameraPerspective-to-Vector3-2" style="stroke:#181818;stroke-width:1.0;"/><polygon fill="#181818" points="3479.68,493.91,3485.6786,486.0987,3480.8523,489.0494,3477.9016,484.223,3479.68,493.91" style="stroke:#181818;stroke-width:1.0;"/><text fill="#000000" font-family="sans-serif" font-size="13" lengthAdjust="spacing" textLength="16" x="3485.2355" y="483.2271">Up</text></g><!--MD5=[abb974133f481326665ca9332982bcdd]
link Objeto to Cor--><g id="link_Objeto_Cor"><path codeLine="69" d="M2696.01,231.72 C2674.78,291.68 2645.27,375.03 2623.63,436.15 " fill="none" id="Objeto-to-Cor" style="stroke:#181818;stroke-width:1.0;"/><polygon fill="#181818" points="2621.95,440.88,2628.7275,433.734,2623.6208,436.1674,2621.1874,431.0607,2621.95,440.88" style="stroke:#181818;stroke-width:1.0;"/><text fill="#000000" font-family="sans-serif" font-size="13" lengthAdjust="spacing" textLength="58" x="2563.7482" y="430.0303">ObjetoCor</text></g><!--MD5=[7e8630a5cd5ea67eab064634d547f460]
link Objeto to PrimitiveType--><g id="link_Objeto_PrimitiveType"><path codeLine="70" d="M2750.2,231.72 C2778.9,312.15 2822.62,434.66 2842.07,489.17 " fill="none" id="Objeto-to-PrimitiveType" style="stroke:#181818;stroke-width:1.0;"/><polygon fill="#181818" points="2843.76,493.91,2844.5226,484.0907,2842.0892,489.1974,2836.9825,486.764,2843.76,493.91" style="stroke:#181818;stroke-width:1.0;"/><text fill="#000000" font-family="sans-serif" font-size="13" lengthAdjust="spacing" textLength="73" x="2759.2954" y="483.2271">PrimitivaTipo</text></g><!--MD5=[ff34dbfed28166dc938de446fd84e6c0]
link Objeto to BBox--><g id="link_Objeto_BBox"><path codeLine="71" d="M2584.45,231.5 C2507.6,273.66 2409.59,327.42 2319.39,376.9 " fill="none" id="Objeto-to-BBox" style="stroke:#181818;stroke-width:1.0;"/><polygon fill="#181818" points="2314.83,379.4,2324.6421,378.5504,2319.2068,376.9827,2320.7745,371.5474,2314.83,379.4" style="stroke:#181818;stroke-width:1.0;"/><text fill="#000000" font-family="sans-serif" font-size="13" lengthAdjust="spacing" textLength="32" x="2296.4061" y="368.4322">BBox</text></g><!--MD5=[a03c7e7dbc7aa919221c9dfab59c60ca]
reverse link Objeto to ObjetoGeometria--><g id="link_Objeto_ObjetoGeometria"><path codeLine="86" d="M2832.37,244.35 C2885.77,287.73 2951.02,340.73 3009.74,388.44 " fill="none" id="Objeto-backto-ObjetoGeometria" style="stroke:#181818;stroke-width:1.0;"/><polygon fill="none" points="2827.67,249.55,2816.56,231.5,2836.49,238.68,2827.67,249.55" style="stroke:#181818;stroke-width:1.0;"/></g><!--MD5=[26236c37487edb4672de193cef5bd1db]
reverse link ObjetoGeometria to Retangulo--><g id="link_ObjetoGeometria_Retangulo"><path codeLine="91" d="M2955.43,658 C2946.21,663.49 2937.04,668.84 2928,674 C2861.74,711.81 2784.32,750.23 2726.29,777.94 " fill="none" id="ObjetoGeometria-backto-Retangulo" style="stroke:#181818;stroke-width:1.0;"/><polygon fill="none" points="2951.87,651.97,2972.62,647.67,2959.09,663.97,2951.87,651.97" style="stroke:#181818;stroke-width:1.0;"/></g><!--MD5=[003750561b878f79e99cad8c4ca21fdc]
reverse link ObjetoGeometria to Poligono--><g id="link_ObjetoGeometria_Poligono"><path codeLine="96" d="M3113.23,666.77 C3098.1,707.59 3082.9,748.61 3072.13,777.69 " fill="none" id="ObjetoGeometria-backto-Poligono" style="stroke:#181818;stroke-width:1.0;"/><polygon fill="none" points="3106.77,664.07,3120.28,647.75,3119.9,668.94,3106.77,664.07" style="stroke:#181818;stroke-width:1.0;"/></g><!--MD5=[17d508597094ccb24ae336549ba236e1]
reverse link ObjetoGeometria to Privado_Circulo--><g id="link_ObjetoGeometria_Privado_Circulo"><path codeLine="108" d="M3311.79,662.07 C3354.35,704.43 3397.64,747.5 3427.98,777.69 " fill="none" id="ObjetoGeometria-backto-Privado_Circulo" style="stroke:#181818;stroke-width:1.0;"/><polygon fill="none" points="3306.64,666.82,3297.4,647.75,3316.51,656.9,3306.64,666.82" style="stroke:#181818;stroke-width:1.0;"/></g><!--MD5=[fba79b035eb861c3c10e58ba51297e23]
reverse link ObjetoGeometria to Privado_SegReta--><g id="link_ObjetoGeometria_Privado_SegReta"><path codeLine="118" d="M3369.45,656.83 C3382.23,663.14 3395.14,668.94 3408,674 C3549.15,729.57 3596.44,698.84 3744,734 C3796.2,746.44 3853.02,762.89 3901.89,777.97 " fill="none" id="ObjetoGeometria-backto-Privado_SegReta" style="stroke:#181818;stroke-width:1.0;"/><polygon fill="none" points="3366.05,662.95,3351.46,647.58,3372.45,650.5,3366.05,662.95" style="stroke:#181818;stroke-width:1.0;"/></g><!--MD5=[d2324369f022484bad9174c24d5cefee]
@startuml
class Mundo {
    + {static} GetInstance(width:int, height:int) : Mundo
    mouseX : int
    mouseY : int
}
class Program {
    {static} Main(args:string[]) : void
}
GameWindow <|- - Mundo
class BBox {
    + BBox(menorX:double, menorY:double, menorZ:double, maiorX:double, maiorY:double, maiorZ:double)
    + Atribuir(pto:Ponto4D) : void
    + Atualizar(pto:Ponto4D) : void
    + Atualizar(x:double, y:double, z:double) : void
    + ProcessarCentro() : void
    + Desenhar() : void
    + obterMenorX : double <<get>>
    + obterMenorY : double <<get>>
    + obterMenorZ : double <<get>>
    + obterMaiorX : double <<get>>
    + obterMaiorY : double <<get>>
    + obterMaiorZ : double <<get>>
    + <<override>> ToString() : string
}
BBox - -> "obterCentro" Ponto4D
class CameraOrtho {
    + CameraOrtho(xMin:double, xMax:double, yMin:double, yMax:double, zMin:double, zMax:double)
    + xmin : double <<get>> <<set>>
    + xmax : double <<get>> <<set>>
    + ymin : double <<get>> <<set>>
    + ymax : double <<get>> <<set>>
    + zmin : double <<get>> <<set>>
    + zmax : double <<get>> <<set>>
    + PanEsquerda() : void
    + PanDireita() : void
    + PanCima() : void
    + PanBaixo() : void
    + ZoomIn() : void
    + ZoomOut() : void
    + <<override>> ToString() : string
}
class CameraPerspective {
    + CameraPerspective(fovy:float, aspect:float, near:float, far:float)
    + Fovy : float <<get>> <<set>>
    + Aspect : float <<get>> <<set>>
    + Near : float <<get>> <<set>>
    + Far : float <<get>> <<set>>
    + <<override>> ToString() : string
}
CameraPerspective - -> "Eye" Vector3
CameraPerspective - -> "At" Vector3
CameraPerspective - -> "Up" Vector3
class Cor {
    + Cor(corR:byte, corG:byte, corB:byte, corA:byte)
    + <<override>> ToString() : string
    + CorR : byte <<get>> <<set>>
    + CorG : byte <<get>> <<set>>
    + CorB : byte <<get>> <<set>>
    + CorA : byte <<get>> <<set>>
}
abstract class Objeto {
    + PrimitivaTamanho : float <<get>> <<set>>
    + Objeto(rotulo:string, paiRef:Objeto)
    + Desenhar() : void
    + FilhoAdicionar(filho:Objeto) : void
    + FilhoRemover(filho:Objeto) : void
    + VerificaEstaDentroBBox(pto:Ponto4D) : bool
}
Objeto - -> "ObjetoCor" Cor
Objeto - -> "PrimitivaTipo" PrimitiveType
Objeto - -> "BBox" BBox
abstract class ObjetoGeometria {
    + ObjetoGeometria(rotulo:string, paiRef:Objeto)
    + PontosAdicionar(pto:Ponto4D) : void
    + PontosRemoverAt(posicao:int) : void
    + PontosRemoverUltimo() : void
    + PontosUltimo() : Ponto4D
    + PontosAlterar(pto:Ponto4D, posicao:int) : void
    + VerticeMaisProximo(pontoMouse:Ponto4D, isRemove:bool) : void
    + ScanlineIntesec(y:double, y1:double, y2:double) : double
    + ScanLine(pontoMouse:Ponto4D) : bool
    + ScanlineCalcularXi(x1:double, x2:double, t:double) : double
    + ScanLine(pontoMouse:Ponto4D, listaPontos:List<Ponto4D>) : bool
    + <<override>> ToString() : string
}
Objeto <|- - ObjetoGeometria
class Retangulo {
    + Retangulo(rotulo:string, paiRef:Objeto, ptoInfEsq:Ponto4D, ptoSupDir:Ponto4D)
    + <<override>> ToString() : string
}
ObjetoGeometria <|- - Retangulo
class Poligono {
    + Poligono(rotulo:string, pai:Objeto)
    + <<override>> ToString() : string
}
ObjetoGeometria <|- - Poligono
abstract class Utilitario {
    + {static} AjudaTeclado() : void
    + {static} charProximo(atual:char) : char
}
abstract class Privado_BBox {
    + {static} Dentro(bBox:BBox, pto:Ponto4D) : bool
}
class Privado_Circulo {
    + Privado_Circulo(rotulo:string, paiRef:Objeto, ptoCentro:Ponto4D, raio:double)
    + <<override>> ToString() : string
}
ObjetoGeometria <|- - Privado_Circulo
abstract class Matematica {
    + {static} GerarPtosCirculo(angulo:double, raio:double) : Ponto4D
    + {static} GerarPtosCirculoSimétrico(raio:double) : double
    + {static} DistanciaEuclidiana(pontoLista:Ponto4D, pontoMouse:Ponto4D) : double
}
class Privado_SegReta {
    + Privado_SegReta(rotulo:string, paiRef:Objeto, ptoIni:Ponto4D, ptoFim:Ponto4D)
    + <<override>> ToString() : string
}
ObjetoGeometria <|- - Privado_SegReta
class Ponto4D {
    + Ponto4D(x:double, y:double, z:double, w:double)
    + Ponto4D(pto:Ponto4D)
    + X : double <<get>> <<set>>
    + Y : double <<get>> <<set>>
    + Z : double <<get>> <<set>>
    + W : double <<get>>
    + <<override>> ToString() : string
}
class Transformacao4D {
    {static} + <<readonly>> DEG_TO_RAD : double = 0.017453292519943295769236907684886
    + Transformacao4D()
    + AtribuirIdentidade() : void
    + AtribuirTranslacao(tx:double, ty:double, tz:double) : void
    + AtribuirEscala(sX:double, sY:double, sZ:double) : void
    + AtribuirRotacaoX(radians:double) : void
    + AtribuirRotacaoY(radians:double) : void
    + AtribuirRotacaoZ(radians:double) : void
    + MultiplicarPonto(pto:Ponto4D) : Ponto4D
    + MultiplicarMatriz(t:Transformacao4D) : Transformacao4D
    + ObterElemento(index:int) : double
    + AtribuirElemento(index:int, value:double) : void
    + ObterDados() : double[]
    + AtribuirDados(data:double[]) : void
    + <<override>> ToString() : string
}
@enduml

PlantUML version 1.2022.7(Mon Aug 22 14:01:30 BRT 2022)
(GPL source distribution)
Java Runtime: Java(TM) SE Runtime Environment
JVM: Java HotSpot(TM) 64-Bit Server VM
Default Encoding: Cp1252
Language: pt
Country: BR
--></g></svg>